<svg id="download_16" viewBox="0 0 17 16" fill="none" xmlns="http://www.w3.org/2000/svg"><path fill-rule="evenodd" clip-rule="evenodd" d="M8.51536 0.999988L8.51536 9.17562L11.5789 6.11209C11.7931 5.89786 12.1405 5.89786 12.3547 6.11209C12.5689 6.32632 12.5689 6.67366 12.3547 6.88789L8.35468 10.8879C8.14045 11.1021 7.79312 11.1021 7.57889 10.8879L3.57889 6.88789C3.36466 6.67366 3.36466 6.32632 3.57889 6.11209C3.79312 5.89786 4.14045 5.89786 4.35468 6.11209L7.41821 9.17562V0.999988C7.41821 0.69702 7.66382 0.451416 7.96678 0.451416C8.26975 0.451416 8.51536 0.69702 8.51536 0.999988ZM1.96678 12.9514C1.66382 12.9514 1.41821 13.197 1.41821 13.5C1.41821 13.803 1.66382 14.0486 1.96678 14.0486H13.9668C14.2698 14.0486 14.5154 13.803 14.5154 13.5C14.5154 13.197 14.2698 12.9514 13.9668 12.9514H1.96678Z" fill="currentColor"></path></svg>