<svg id="download_24" viewBox="0 0 24 24" fill="none" xmlns="http://www.w3.org/2000/svg"><path fill-rule="evenodd" clip-rule="evenodd" d="M12.0729 1.5V13.7634L16.6682 9.16815C16.9895 8.84681 17.5105 8.84681 17.8318 9.16815C18.1532 9.4895 18.1532 10.0105 17.8318 10.3318L11.8318 16.3318C11.5105 16.6532 10.9895 16.6532 10.6682 16.3318L4.66815 10.3318C4.34681 10.0105 4.34681 9.4895 4.66815 9.16815C4.9895 8.84681 5.5105 8.84681 5.83185 9.16815L10.4271 13.7634L10.4271 1.5C10.4271 1.04555 10.7955 0.677143 11.25 0.677143C11.7045 0.677143 12.0729 1.04555 12.0729 1.5ZM2.25 19.4271C1.79555 19.4271 1.42714 19.7955 1.42714 20.25C1.42714 20.7045 1.79555 21.0729 2.25 21.0729H20.25C20.7045 21.0729 21.0729 20.7045 21.0729 20.25C21.0729 19.7955 20.7045 19.4271 20.25 19.4271H2.25Z" fill="currentColor"></path></svg>