<svg id="filelook_ppt_16" viewBox="0 0 40 40" fill="none" xmlns="http://www.w3.org/2000/svg"><rect x="-0.000854492" width="40" height="40" fill="#ED6C47"></rect><path d="M10.7688 10.7693C10.7688 9.91963 11.4576 9.23083 12.3073 9.23083H23.8457L29.2303 14.6155V29.2308C29.2303 30.0805 28.5415 30.7693 27.6919 30.7693H12.3073C11.4576 30.7693 10.7688 30.0805 10.7688 29.2308V10.7693Z" fill="white"></path><path d="M23.9817 9.09485L23.9254 9.03853H23.8457H12.3073C11.3514 9.03853 10.5765 9.81342 10.5765 10.7693V29.2308C10.5765 30.1867 11.3514 30.9616 12.3073 30.9616H27.6919C28.6478 30.9616 29.4226 30.1867 29.4226 29.2308V14.6155V14.5358L29.3663 14.4795L23.9817 9.09485Z" stroke="currentColor" stroke-opacity="0.06" stroke-width="0.384615"></path><path d="M17.3234 23.6154V16.3427H20.2566C20.8059 16.3427 21.277 16.448 21.67 16.6587C22.063 16.8694 22.3636 17.1618 22.572 17.5359C22.7827 17.9099 22.888 18.342 22.888 18.832C22.888 19.3245 22.7803 19.7577 22.5649 20.1318C22.3518 20.5034 22.0452 20.7923 21.6451 20.9982C21.2474 21.2042 20.7692 21.3072 20.2105 21.3072H18.371V20.0004H19.9264C20.2057 20.0004 20.4377 19.9518 20.6224 19.8548C20.8094 19.7553 20.9503 19.618 21.045 19.4428C21.1397 19.2676 21.187 19.064 21.187 18.832C21.187 18.6 21.1397 18.3976 21.045 18.2248C20.9503 18.052 20.8094 17.9182 20.6224 17.8235C20.4354 17.7288 20.201 17.6815 19.9193 17.6815H18.9676V23.6154H17.3234Z" fill="#ED6C47"></path><path d="M23.8457 13.077V9.23083L29.2303 14.6155H25.3842C24.5345 14.6155 23.8457 13.9267 23.8457 13.077Z" fill="#ED6C47" fill-opacity="0.4"></path></svg>