<svg id="filelook_audio_16" viewBox="0 0 40 40" fill="none" xmlns="http://www.w3.org/2000/svg"><rect x="0.000732422" width="40" height="40" fill="#0099FF"></rect><path d="M16.4378 26.647C16.9326 28.4936 15.5872 30.4585 13.4328 31.0358C11.2785 31.6131 9.42493 30.5769 8.63607 28.7375C7.88259 26.9804 8.46334 24.4233 11.5402 24.423C13.0787 24.4228 15.943 24.8004 16.4378 26.647Z" fill="white"></path><path d="M28.7651 24.4166C29.2598 26.2633 27.9145 28.2282 25.7601 28.8055C23.6057 29.3827 21.7522 28.3466 20.9633 26.5071C20.2099 24.7501 20.7906 22.1929 23.8675 22.1926C25.4059 22.1925 28.2703 22.57 28.7651 24.4166Z" fill="white"></path><path fill-rule="evenodd" clip-rule="evenodd" d="M16.5399 15.2798C16.5399 15.0943 16.6723 14.9352 16.8548 14.9016L26.0856 13.2008C26.3219 13.1572 26.5399 13.3387 26.5399 13.579V25.0782C26.5399 25.2907 26.7121 25.4629 26.9245 25.4629H28.4629C28.6754 25.4629 28.8476 25.2907 28.8476 25.0782V12.6919V11.9231V9.00035C28.8476 8.5197 28.4117 8.15678 27.939 8.24385L14.8621 10.6528C14.4971 10.72 14.2322 11.0382 14.2322 11.4093V14.2307V15.3848V27.5C14.2322 27.7124 14.4044 27.8846 14.6168 27.8846H16.1553C16.3677 27.8846 16.5399 27.7124 16.5399 27.5V15.2798Z" fill="white"></path></svg>