<svg id="group_16" viewBox="0 0 16 16" fill="none" xmlns="http://www.w3.org/2000/svg"><circle cx="5.5" cy="5.5" r="2" stroke="currentColor" stroke-linecap="square"></circle><circle cx="11" cy="6" r="1.5" stroke="currentColor" stroke-linecap="square"></circle><path d="M1.5 13.1667C1.5 11.1416 3.14166 9.5 5.16672 9.5H5.16802H5.16932H5.17062H5.17193H5.17323H5.17453H5.17584H5.17714H5.17844H5.17974H5.18105H5.18235H5.18365H5.18495H5.18626H5.18756H5.18886H5.19017H5.19147H5.19277H5.19407H5.19538H5.19668H5.19798H5.19928H5.20059H5.20189H5.20319H5.20449H5.2058H5.2071H5.2084H5.2097H5.21101H5.21231H5.21361H5.21491H5.21622H5.21752H5.21882H5.22012H5.22143H5.22273H5.22403H5.22533H5.22664H5.22794H5.22924H5.23054H5.23184H5.23315H5.23445H5.23575H5.23705H5.23836H5.23966H5.24096H5.24226H5.24357H5.24487H5.24617H5.24747H5.24877H5.25008H5.25138H5.25268H5.25398H5.25529H5.25659H5.25789H5.25919H5.26049H5.2618H5.2631H5.2644H5.2657H5.267H5.26831H5.26961H5.27091H5.27221H5.27352H5.27482H5.27612H5.27742H5.27872H5.28003H5.28133H5.28263H5.28393H5.28523H5.28654H5.28784H5.28914H5.29044H5.29174H5.29305H5.29435H5.29565H5.29695H5.29825H5.29956H5.30086H5.30216H5.30346H5.30476H5.30606H5.30737H5.30867H5.30997H5.31127H5.31257H5.31388H5.31518H5.31648H5.31778H5.31908H5.32039H5.32169H5.32299H5.32429H5.32559H5.32689H5.3282H5.3295H5.3308H5.3321H5.3334H5.33471H5.33601H5.33731H5.33861H5.33991H5.34121H5.34252H5.34382H5.34512H5.34642H5.34772H5.34902H5.35033H5.35163H5.35293H5.35423H5.35553H5.35683H5.35814H5.35944H5.36074H5.36204H5.36334H5.36464H5.36595H5.36725H5.36855H5.36985H5.37115H5.37245H5.37376H5.37506H5.37636H5.37766H5.37896H5.38026H5.38157H5.38287H5.38417H5.38547H5.38677H5.38807H5.38938H5.39068H5.39198H5.39328H5.39458H5.39588H5.39718H5.39849H5.39979H5.40109H5.40239H5.40369H5.40499H5.4063H5.4076H5.4089H5.4102H5.4115H5.4128H5.4141H5.41541H5.41671H5.41801H5.41931H5.42061H5.42191H5.42321H5.42452H5.42582H5.42712H5.42842H5.42972H5.43102H5.43233H5.43363H5.43493H5.43623H5.43753H5.43883H5.44013H5.44144H5.44274H5.44404H5.44534H5.44664H5.44794H5.44924H5.45055H5.45185H5.45315H5.45445H5.45575H5.45705H5.45835H5.45966H5.46096H5.46226H5.46356H5.46486H5.46616H5.46746H5.46877H5.47007H5.47137H5.47267H5.47397H5.47527H5.47657H5.47788H5.47918H5.48048H5.48178H5.48308H5.48438H5.48568H5.48699H5.48829H5.48959H5.49089H5.49219H5.49349H5.49479H5.4961H5.4974H5.4987H5.5H5.5013H5.5026H5.5039H5.50521H5.50651H5.50781H5.50911H5.51041H5.51171H5.51301H5.51432H5.51562H5.51692H5.51822H5.51952H5.52082H5.52212H5.52343H5.52473H5.52603H5.52733H5.52863H5.52993H5.53123H5.53254H5.53384H5.53514H5.53644H5.53774H5.53904H5.54034H5.54165H5.54295H5.54425H5.54555H5.54685H5.54815H5.54945H5.55076H5.55206H5.55336H5.55466H5.55596H5.55726H5.55856H5.55987H5.56117H5.56247H5.56377H5.56507H5.56637H5.56768H5.56898H5.57028H5.57158H5.57288H5.57418H5.57548H5.57679H5.57809H5.57939H5.58069H5.58199H5.58329H5.58459H5.5859H5.5872H5.5885H5.5898H5.5911H5.5924H5.59371H5.59501H5.59631H5.59761H5.59891H5.60021H5.60151H5.60282H5.60412H5.60542H5.60672H5.60802H5.60932H5.61063H5.61193H5.61323H5.61453H5.61583H5.61713H5.61843H5.61974H5.62104H5.62234H5.62364H5.62494H5.62624H5.62755H5.62885H5.63015H5.63145H5.63275H5.63405H5.63536H5.63666H5.63796H5.63926H5.64056H5.64186H5.64317H5.64447H5.64577H5.64707H5.64837H5.64967H5.65098H5.65228H5.65358H5.65488H5.65618H5.65748H5.65879H5.66009H5.66139H5.66269H5.66399H5.6653H5.6666H5.6679H5.6692H5.6705H5.6718H5.67311H5.67441H5.67571H5.67701H5.67831H5.67962H5.68092H5.68222H5.68352H5.68482H5.68612H5.68743H5.68873H5.69003H5.69133H5.69263H5.69394H5.69524H5.69654H5.69784H5.69914H5.70045H5.70175H5.70305H5.70435H5.70565H5.70695H5.70826H5.70956H5.71086H5.71216H5.71346H5.71477H5.71607H5.71737H5.71867H5.71997H5.72128H5.72258H5.72388H5.72518H5.72648H5.72779H5.72909H5.73039H5.73169H5.733H5.7343H5.7356H5.7369H5.7382H5.73951H5.74081H5.74211H5.74341H5.74471H5.74602H5.74732H5.74862H5.74992H5.75123H5.75253H5.75383H5.75513H5.75643H5.75774H5.75904H5.76034H5.76164H5.76295H5.76425H5.76555H5.76685H5.76816H5.76946H5.77076H5.77206H5.77336H5.77467H5.77597H5.77727H5.77857H5.77988H5.78118H5.78248H5.78378H5.78509H5.78639H5.78769H5.78899H5.7903H5.7916H5.7929H5.7942H5.79551H5.79681H5.79811H5.79941H5.80072H5.80202H5.80332H5.80462H5.80593H5.80723H5.80853H5.80983H5.81114H5.81244H5.81374H5.81505H5.81635H5.81765H5.81895H5.82026H5.82156H5.82286H5.82416H5.82547H5.82677H5.82807H5.82938H5.83068H5.83198H5.83328C7.85834 9.5 9.5 11.1416 9.5 13.1667C9.5 13.3508 9.35076 13.5 9.16667 13.5H1.83333C1.64924 13.5 1.5 13.3508 1.5 13.1667Z" stroke="currentColor" stroke-linecap="square"></path><path fill-rule="evenodd" clip-rule="evenodd" d="M9.99671 13H12.8571C13.4883 13 14 12.4883 14 11.8571C14 10.2792 12.7208 9 11.1428 9H10.8571C9.9539 9 9.14857 9.41911 8.625 10.0735C8.87939 10.3032 9.1053 10.5639 9.29681 10.8496C9.62762 10.3383 10.2029 10 10.8571 10H10.8577H10.8582H10.8588H10.8594H10.8599H10.8605H10.861H10.8616H10.8621H10.8627H10.8633H10.8638H10.8644H10.8649H10.8655H10.8661H10.8666H10.8672H10.8677H10.8683H10.8688H10.8694H10.87H10.8705H10.8711H10.8716H10.8722H10.8727H10.8733H10.8739H10.8744H10.875H10.8755H10.8761H10.8767H10.8772H10.8778H10.8783H10.8789H10.8794H10.88H10.8806H10.8811H10.8817H10.8822H10.8828H10.8834H10.8839H10.8845H10.885H10.8856H10.8861H10.8867H10.8873H10.8878H10.8884H10.8889H10.8895H10.89H10.8906H10.8912H10.8917H10.8923H10.8928H10.8934H10.894H10.8945H10.8951H10.8956H10.8962H10.8967H10.8973H10.8979H10.8984H10.899H10.8995H10.9001H10.9006H10.9012H10.9018H10.9023H10.9029H10.9034H10.904H10.9046H10.9051H10.9057H10.9062H10.9068H10.9073H10.9079H10.9085H10.909H10.9096H10.9101H10.9107H10.9113H10.9118H10.9124H10.9129H10.9135H10.914H10.9146H10.9152H10.9157H10.9163H10.9168H10.9174H10.9179H10.9185H10.9191H10.9196H10.9202H10.9207H10.9213H10.9219H10.9224H10.923H10.9235H10.9241H10.9246H10.9252H10.9258H10.9263H10.9269H10.9274H10.928H10.9286H10.9291H10.9297H10.9302H10.9308H10.9313H10.9319H10.9325H10.933H10.9336H10.9341H10.9347H10.9352H10.9358H10.9364H10.9369H10.9375H10.938H10.9386H10.9392H10.9397H10.9403H10.9408H10.9414H10.9419H10.9425H10.9431H10.9436H10.9442H10.9447H10.9453H10.9459H10.9464H10.947H10.9475H10.9481H10.9486H10.9492H10.9498H10.9503H10.9509H10.9514H10.952H10.9525H10.9531H10.9537H10.9542H10.9548H10.9553H10.9559H10.9565H10.957H10.9576H10.9581H10.9587H10.9592H10.9598H10.9604H10.9609H10.9615H10.962H10.9626H10.9631H10.9637H10.9643H10.9648H10.9654H10.9659H10.9665H10.9671H10.9676H10.9682H10.9687H10.9693H10.9698H10.9704H10.971H10.9715H10.9721H10.9726H10.9732H10.9738H10.9743H10.9749H10.9754H10.976H10.9765H10.9771H10.9777H10.9782H10.9788H10.9793H10.9799H10.9804H10.981H10.9816H10.9821H10.9827H10.9832H10.9838H10.9844H10.9849H10.9855H10.986H10.9866H10.9871H10.9877H10.9883H10.9888H10.9894H10.9899H10.9905H10.9911H10.9916H10.9922H10.9927H10.9933H10.9938H10.9944H10.995H10.9955H10.9961H10.9966H10.9972H10.9977H10.9983H10.9989H10.9994H11H11.0005H11.0011H11.0017H11.0022H11.0028H11.0033H11.0039H11.0044H11.005H11.0056H11.0061H11.0067H11.0072H11.0078H11.0084H11.0089H11.0095H11.01H11.0106H11.0111H11.0117H11.0123H11.0128H11.0134H11.0139H11.0145H11.015H11.0156H11.0162H11.0167H11.0173H11.0178H11.0184H11.019H11.0195H11.0201H11.0206H11.0212H11.0217H11.0223H11.0229H11.0234H11.024H11.0245H11.0251H11.0256H11.0262H11.0268H11.0273H11.0279H11.0284H11.029H11.0296H11.0301H11.0307H11.0312H11.0318H11.0323H11.0329H11.0335H11.034H11.0346H11.0351H11.0357H11.0363H11.0368H11.0374H11.0379H11.0385H11.039H11.0396H11.0402H11.0407H11.0413H11.0418H11.0424H11.0429H11.0435H11.0441H11.0446H11.0452H11.0457H11.0463H11.0469H11.0474H11.048H11.0485H11.0491H11.0496H11.0502H11.0508H11.0513H11.0519H11.0524H11.053H11.0536H11.0541H11.0547H11.0552H11.0558H11.0563H11.0569H11.0575H11.058H11.0586H11.0591H11.0597H11.0602H11.0608H11.0614H11.0619H11.0625H11.063H11.0636H11.0642H11.0647H11.0653H11.0658H11.0664H11.0669H11.0675H11.0681H11.0686H11.0692H11.0697H11.0703H11.0709H11.0714H11.072H11.0725H11.0731H11.0736H11.0742H11.0748H11.0753H11.0759H11.0764H11.077H11.0775H11.0781H11.0787H11.0792H11.0798H11.0803H11.0809H11.0815H11.082H11.0826H11.0831H11.0837H11.0842H11.0848H11.0854H11.0859H11.0865H11.087H11.0876H11.0881H11.0887H11.0893H11.0898H11.0904H11.0909H11.0915H11.0921H11.0926H11.0932H11.0937H11.0943H11.0948H11.0954H11.096H11.0965H11.0971H11.0976H11.0982H11.0988H11.0993H11.0999H11.1004H11.101H11.1015H11.1021H11.1027H11.1032H11.1038H11.1043H11.1049H11.1054H11.106H11.1066H11.1071H11.1077H11.1082H11.1088H11.1094H11.1099H11.1105H11.111H11.1116H11.1121H11.1127H11.1133H11.1138H11.1144H11.1149H11.1155H11.1161H11.1166H11.1172H11.1177H11.1183H11.1188H11.1194H11.12H11.1205H11.1211H11.1216H11.1222H11.1227H11.1233H11.1239H11.1244H11.125H11.1255H11.1261H11.1267H11.1272H11.1278H11.1283H11.1289H11.1294H11.13H11.1306H11.1311H11.1317H11.1322H11.1328H11.1334H11.1339H11.1345H11.135H11.1356H11.1361H11.1367H11.1373H11.1378H11.1384H11.1389H11.1395H11.14H11.1406H11.1412H11.1417H11.1423H11.1428C12.1685 10 13 10.8315 13 11.8571C13 11.936 12.936 12 12.8571 12H9.83444C9.92735 12.3192 9.9831 12.6542 9.99671 13Z" fill="currentColor"></path></svg>