<svg id="home_24" viewBox="0 0 24 24" fill="none" xmlns="http://www.w3.org/2000/svg"><path fill-rule="evenodd" clip-rule="evenodd" d="M12.4761 2.89916C12.2001 2.67249 11.8027 2.67181 11.5259 2.89754L5.52594 7.79206L4.04517 9H4.00002V9.03683L2.52594 10.2393L1.77594 10.8511L2.7241 12.0135L3.4741 11.4016L4.00002 10.9726V19.5C4.00002 20.3284 4.6716 21 5.50002 21H18.5C19.3284 21 20 20.3284 20 19.5V11.021L20.524 11.4514L21.274 12.0675L22.2261 10.9085L21.4761 10.2924L20 9.07982V9H19.9029L18.4761 7.82796L12.4761 2.89916ZM18.5 9.78884L17.524 8.98703L11.9984 4.44794L6.4741 8.95438L5.50002 9.74899V19.5H11V15H13V19.5L18.5 19.5V9.78884Z" fill="currentColor"></path></svg>