<svg id="like_filled_24" viewBox="0 0 24 24" fill="none" xmlns="http://www.w3.org/2000/svg"><path fill-rule="evenodd" clip-rule="evenodd" d="M6.50322 9L11.1762 2.70548C12.1315 1.41857 14.0346 1.22451 15.2124 2.35742C16.0336 3.14729 16.2455 4.36501 15.7533 5.385L14.0088 9.00006H20.1962C21.8497 9.00006 23.0477 10.5766 22.6048 12.1698L20.3804 20.1698C20.0796 21.2515 19.0945 22.0001 17.9717 22.0001H6.50024V22H6.5H4C2.89543 22 2 21.1046 2 20V11C2 9.89543 2.89543 9 4 9H6.5H6.50322ZM4 10.5H6.5V20.5H4C3.72386 20.5 3.5 20.2761 3.5 20V11C3.5 10.7239 3.72386 10.5 4 10.5Z" fill="currentColor"></path></svg>