<svg id="long_screenshot_24" viewBox="0 0 24 24" fill="none" xmlns="http://www.w3.org/2000/svg"><path fill-rule="evenodd" clip-rule="evenodd" d="M4.5 4.5H19.5V11.5H21V4.5C21 3.67157 20.3284 3 19.5 3H4.5C3.67157 3 3 3.67157 3 4.5V11.5H4.5L4.5 4.5ZM7 19.5C8.10457 19.5 9 18.6046 9 17.5C9 16.3954 8.10457 15.5 7 15.5C5.89543 15.5 5 16.3954 5 17.5C5 18.6046 5.89543 19.5 7 19.5ZM7 21C8.933 21 10.5 19.433 10.5 17.5C10.5 16.8162 10.3039 16.1782 9.9649 15.6392L12.0218 13.5823L14.052 15.6126C13.7026 16.1572 13.5 16.8049 13.5 17.5C13.5 19.433 15.067 21 17 21C18.933 21 20.5 19.433 20.5 17.5C20.5 15.567 18.933 14 17 14C16.3049 14 15.6572 14.2026 15.1126 14.552L13.0823 12.5217L16.9854 8.61873C17.5704 8.03366 17.5704 7.08507 16.9854 6.5L12.023 11.4624L7.06058 6.49997C6.47484 7.08571 6.47484 8.03538 7.06058 8.62112L10.9624 12.5229L8.91528 14.5701C8.36498 14.2096 7.70697 14 7 14C5.067 14 3.5 15.567 3.5 17.5C3.5 19.433 5.067 21 7 21ZM19 17.5C19 18.6046 18.1046 19.5 17 19.5C15.8954 19.5 15 18.6046 15 17.5C15 16.3954 15.8954 15.5 17 15.5C18.1046 15.5 19 16.3954 19 17.5Z" fill="currentColor"></path></svg>