<svg id="star_24" viewBox="0 0 24 24" fill="none" xmlns="http://www.w3.org/2000/svg"><path d="M14.7986 8.15879L14.9718 8.49927L15.3489 8.55948L20.9525 9.45395C21.1538 9.48608 21.2341 9.73267 21.0903 9.87716L17.0784 13.909L16.81 14.1786L16.8691 14.5544L17.7529 20.1785C17.7846 20.3802 17.5742 20.5328 17.3923 20.44L12.3411 17.8609L12 17.6867L11.6589 17.8609L6.60773 20.44C6.42585 20.5328 6.21538 20.3802 6.24708 20.1785L7.13091 14.5544L7.18996 14.1786L6.92164 13.909L2.9097 9.87716C2.76592 9.73267 2.84621 9.48608 3.04751 9.45395L8.65105 8.55948L9.02824 8.49927L9.20137 8.15879L11.7772 3.09302C11.8698 2.91076 12.1302 2.91077 12.2228 3.09302L14.7986 8.15879Z" stroke="currentColor" stroke-width="1.5"></path></svg>