<svg id="transmission_file_24" viewBox="0 0 24 24" fill="none" xmlns="http://www.w3.org/2000/svg"><path d="M15 13L12 16H22" stroke="currentColor" stroke-width="1.5" stroke-linejoin="round"></path><path d="M18 23L21 20H11" stroke="currentColor" stroke-width="1.5" stroke-linejoin="round"></path><path fill-rule="evenodd" clip-rule="evenodd" d="M12 7.5H11.1972L10.7519 6.83204L9.19722 4.5L4 4.5C3.72386 4.5 3.5 4.72386 3.5 5V19C3.5 19.2761 3.72386 19.5 4 19.5H9V21H4C2.89543 21 2 20.1046 2 19V5C2 3.89543 2.89543 3 4 3H9.19722C9.69875 3 10.1671 3.25065 10.4453 3.66796L12 6H20C21.1046 6 22 6.89543 22 8V12H20.5V8C20.5 7.72386 20.2761 7.5 20 7.5H12Z" fill="currentColor"></path></svg>