<svg id="administering_user_16" viewBox="0 0 16 16" fill="none" xmlns="http://www.w3.org/2000/svg"><circle cx="8" cy="5" r="2.5" stroke="currentColor" stroke-linecap="square"></circle><path d="M11.7675 8.62546C11.819 8.59569 11.8826 8.59569 11.9341 8.62546L14.0595 9.85255C14.1111 9.88232 14.1429 9.93735 14.1429 9.99689V12.4511C14.1429 12.5106 14.1111 12.5656 14.0595 12.5954L11.9341 13.8225C11.8826 13.8523 11.819 13.8523 11.7675 13.8225L9.6421 12.5954L9.3921 13.0284L9.6421 12.5954C9.59053 12.5656 9.55876 12.5106 9.55876 12.4511V9.99689C9.55876 9.93735 9.59053 9.88232 9.6421 9.85255L11.7675 8.62546Z" stroke="currentColor"></path><path fill-rule="evenodd" clip-rule="evenodd" d="M8 9H6.28571C3.91878 9 2 10.9188 2 13.2857C2 13.6802 2.32101 14 2.7155 14H8L8 13H7.9808H7.96161H7.94241H7.92321H7.90401H7.88482H7.86562H7.84642H7.82721H7.80801H7.78881H7.7696H7.75039H7.73119H7.71198H7.69276H7.67355H7.65433H7.63511H7.61589H7.59667H7.57744H7.55821H7.53897H7.51974H7.5005H7.48126H7.46201H7.44276H7.4235H7.40425H7.38498H7.36572H7.34645H7.32717H7.30789H7.2886H7.26931H7.25002H7.23072H7.21141H7.1921H7.17279H7.15347H7.13414H7.1148H7.09546H7.07612H7.05677H7.03741H7.01804H6.99867H6.97929H6.9599H6.94051H6.92111H6.9017H6.88229H6.86286H6.84343H6.82399H6.80455H6.78509H6.76563H6.74616H6.72668H6.70719H6.68769H6.66818H6.64866H6.62914H6.6096H6.59006H6.5705H6.55094H6.53137H6.51178H6.49219H6.47258H6.45297H6.43334H6.41371H6.39406H6.3744H6.35473H6.33505H6.31536H6.29566H6.27594H6.25621H6.23647H6.21672H6.19696H6.17719H6.1574H6.1376H6.11778H6.09796H6.07812H6.05827H6.0384H6.01852H5.99863H5.97873H5.95881H5.93887H5.91893H5.89896H5.87899H5.859H5.83899H5.81897H5.79894H5.77889H5.75883H5.73875H5.71865H5.69854H5.67841H5.65827H5.63811H5.61794H5.59775H5.57754H5.55732H5.53708H5.51683H5.49655H5.47626H5.45596H5.43563H5.41529H5.39493H5.37456H5.35416H5.33375H5.31332H5.29287H5.27241H5.25192H5.23142H5.2109H5.19036H5.1698H5.14922H5.12862H5.108H5.08737H5.06671H5.04603H5.02534H5.00462H4.98389H4.96313H4.94235H4.92156H4.90074H4.8799H4.85904H4.83816H4.81726H4.79634H4.77539H4.75442H4.73344H4.71243H4.6914H4.67034H4.64927H4.62817H4.60705H4.5859H4.56474H4.54355H4.52234H4.5011H4.47984H4.45856H4.43725H4.41593H4.39457H4.3732H4.35179H4.33037H4.30892H4.28745H4.26595H4.24442H4.22287H4.2013H4.1797H4.15808H4.13643H4.11475H4.09305H4.07133H4.04957H4.0278H4.00599H3.98416H3.9623H3.94042H3.91851H3.89657H3.87461H3.85261H3.83059H3.80855H3.78647H3.76437H3.74224H3.72009H3.6979H3.67569H3.65344H3.63117H3.60888H3.58655H3.56419H3.5418H3.51939H3.49695H3.47447H3.45197H3.42944H3.40688H3.38428H3.36166H3.33901H3.31633H3.29361H3.27087H3.24809H3.22529H3.20245H3.17958H3.15669H3.13376H3.11079H3.0878H3.06478H3.04172H3.01863H3.01225C3.15704 11.3191 4.56733 10 6.28571 10H6.29241H6.29911H6.3058H6.3125H6.3192H6.32589H6.33259H6.33929H6.34598H6.35268H6.35938H6.36607H6.37277H6.37946H6.38616H6.39286H6.39955H6.40625H6.41295H6.41964H6.42634H6.43304H6.43973H6.44643H6.45312H6.45982H6.46652H6.47321H6.47991H6.48661H6.4933H6.5H6.5067H6.51339H6.52009H6.52679H6.53348H6.54018H6.54688H6.55357H6.56027H6.56696H6.57366H6.58036H6.58705H6.59375H6.60045H6.60714H6.61384H6.62054H6.62723H6.63393H6.64062H6.64732H6.65402H6.66071H6.66741H6.67411H6.6808H6.6875H6.6942H6.70089H6.70759H6.71429H6.72098H6.72768H6.73438H6.74107H6.74777H6.75446H6.76116H6.76786H6.77455H6.78125H6.78795H6.79464H6.80134H6.80804H6.81473H6.82143H6.82812H6.83482H6.84152H6.84821H6.85491H6.86161H6.8683H6.875H6.8817H6.88839H6.89509H6.90179H6.90848H6.91518H6.92188H6.92857H6.93527H6.94196H6.94866H6.95536H6.96205H6.96875H6.97545H6.98214H6.98884H6.99554H7.00223H7.00893H7.01562H7.02232H7.02902H7.03571H7.04241H7.04911H7.0558H7.0625H7.0692H7.07589H7.08259H7.08929H7.09598H7.10268H7.10938H7.11607H7.12277H7.12946H7.13616H7.14286H7.14955H7.15625H7.16295H7.16964H7.17634H7.18304H7.18973H7.19643H7.20312H7.20982H7.21652H7.22321H7.22991H7.23661H7.2433H7.25H7.2567H7.26339H7.27009H7.27679H7.28348H7.29018H7.29688H7.30357H7.31027H7.31696H7.32366H7.33036H7.33705H7.34375H7.35045H7.35714H7.36384H7.37054H7.37723H7.38393H7.39062H7.39732H7.40402H7.41071H7.41741H7.42411H7.4308H7.4375H7.4442H7.45089H7.45759H7.46429H7.47098H7.47768H7.48438H7.49107H7.49777H7.50446H7.51116H7.51786H7.52455H7.53125H7.53795H7.54464H7.55134H7.55804H7.56473H7.57143H7.57812H7.58482H7.59152H7.59821H7.60491H7.61161H7.6183H7.625H7.6317H7.63839H7.64509H7.65179H7.65848H7.66518H7.67188H7.67857H7.68527H7.69196H7.69866H7.70536H7.71205H7.71875H7.72545H7.73214H7.73884H7.74554H7.75223H7.75893H7.76562H7.77232H7.77902H7.78571H7.79241H7.79911H7.8058H7.8125H7.8192H7.82589H7.83259H7.83929H7.84598H7.85268H7.85938H7.86607H7.87277H7.87946H7.88616H7.89286H7.89955H7.90625H7.91295H7.91964H7.92634H7.93304H7.93973H7.94643H7.95312H7.95982H7.96652H7.97321H7.97991H7.98661H7.9933H8V9Z" fill="currentColor"></path><path d="M11.1694 11.6191L12.5335 10.8316" stroke="currentColor"></path></svg>