<svg id="brush_24" viewBox="0 0 24 24" fill="none" xmlns="http://www.w3.org/2000/svg"><path fill-rule="evenodd" clip-rule="evenodd" d="M19.7141 3.51757C19.7142 3.51746 19.7145 3.51964 19.7145 3.52441C19.714 3.52006 19.714 3.51768 19.7141 3.51757ZM19.5968 3.99671C19.5336 4.17002 19.4423 4.38498 19.3163 4.6435C18.7795 5.74436 17.8054 7.26003 16.7206 8.81781C16.041 9.79384 15.3275 10.7729 14.6686 11.6565L13.2486 10.4458L13.4566 10.2024C14.2866 9.23108 15.1197 8.25621 15.9235 7.36295C16.8498 6.33353 17.7163 5.43628 18.4714 4.79383C18.8489 4.47271 19.1819 4.22963 19.4667 4.06704C19.5126 4.04084 19.5559 4.01748 19.5968 3.99671ZM12.2715 11.5839C11.8829 12.0334 11.4994 12.4716 11.126 12.8874L12.7035 14.2323C12.9453 13.9223 13.2453 13.5351 13.5841 13.0922C13.6429 13.0152 13.7029 12.9366 13.764 12.8564L12.2715 11.5839ZM10.0934 13.9782L11.8734 15.4958C11.3437 17.1812 10.6321 18.1574 9.92035 18.7138C9.1873 19.2868 8.38456 19.4692 7.60955 19.4505C6.82263 19.4315 6.07669 19.2041 5.51349 18.9695C5.45295 18.9443 5.3949 18.9191 5.33953 18.8943C5.65207 18.3314 5.92448 17.5467 6.11506 16.3873C6.26366 15.4834 6.69908 14.9141 7.29885 14.5488C7.92745 14.1658 8.78863 13.9782 9.79497 13.9782H10.0934ZM4.22655 19.1563L3.81829 19.7855L3.05591 19.2907L3.68631 18.6361C3.95492 18.3571 4.36621 17.7787 4.63492 16.144C4.85396 14.8115 5.54295 13.862 6.51848 13.2677C7.37545 12.7457 8.41132 12.5218 9.464 12.484C10.2363 11.6515 11.0764 10.6776 11.945 9.66225L12.3151 9.22924L12.3152 9.22916C13.1439 8.25934 13.9908 7.2683 14.8085 6.3596C15.746 5.31772 16.6661 4.3603 17.4994 3.65136C17.9162 3.29679 18.3278 2.99 18.723 2.76438C19.1091 2.54393 19.5352 2.36847 19.9696 2.3449C20.2683 2.32869 20.6526 2.39501 20.933 2.71506C21.1937 3.01258 21.2255 3.37612 21.2118 3.62667C21.1846 4.12042 20.9486 4.7184 20.6645 5.30091C20.073 6.51409 19.0406 8.11105 17.9516 9.67499C16.8558 11.2486 15.6779 12.8237 14.7755 14.0035C14.3239 14.5939 13.9405 15.0863 13.6699 15.4315C13.5345 15.6041 13.4273 15.7398 13.3537 15.8327L13.3304 15.8621C12.7351 17.7986 11.8721 19.092 10.8442 19.8956C9.78493 20.7236 8.62231 20.9753 7.57341 20.9501C6.53642 20.9251 5.5999 20.6305 4.93661 20.3541C4.60179 20.2146 4.32833 20.0763 4.13643 19.9715C4.04029 19.919 3.9641 19.8747 3.91035 19.8424C3.88346 19.8263 3.86215 19.8131 3.84671 19.8035L3.82799 19.7917L3.82199 19.7879L3.81985 19.7865L3.819 19.7859C3.81863 19.7857 3.81829 19.7855 4.22655 19.1563Z" fill="currentColor"></path></svg>