<svg id="brush_16" viewBox="0 0 16 16" fill="none" xmlns="http://www.w3.org/2000/svg"><path fill-rule="evenodd" clip-rule="evenodd" d="M13.3127 1.78652C13.3128 1.78644 13.313 1.78805 13.313 1.7916C13.3126 1.78838 13.3126 1.7866 13.3127 1.78652ZM13.2401 2.08809C13.1914 2.2232 13.1162 2.39646 13.0083 2.60932C12.6095 3.39555 11.8954 4.47558 11.1045 5.58304C10.5906 6.30264 10.051 7.02443 9.55714 7.67051L8.49864 6.76801C9.16214 6.00798 9.83824 5.23364 10.4885 4.53017C11.1675 3.79565 11.8056 3.15235 12.3596 2.6907C12.6366 2.45988 12.8817 2.28369 13.0914 2.16516C13.1456 2.13451 13.1952 2.10907 13.2401 2.08809ZM7.84019 7.52073C7.54891 7.85231 7.26314 8.17475 6.98736 8.47907L8.15069 9.47095C8.33134 9.24458 8.56011 8.95593 8.82052 8.62298C8.86139 8.57072 8.90303 8.51739 8.94537 8.46304L7.84019 7.52073ZM6.30696 9.21308L7.58576 10.3034C7.21529 11.3802 6.70727 12.0269 6.18244 12.4127C5.63546 12.8148 5.02784 12.9646 4.44185 12.9795C3.85159 12.9944 3.29563 12.8715 2.8806 12.7401C2.85202 12.731 2.82419 12.722 2.79714 12.7129C3.10264 12.2601 3.38607 11.6805 3.50544 10.9543C3.6127 10.3018 3.91938 9.88948 4.33898 9.6262C4.77687 9.35144 5.37759 9.21566 6.08877 9.21566H6.30452L6.30696 9.21308ZM2.00002 12.929L1.77007 13.373L1.20612 13.0809L1.62242 12.6012C1.98954 12.1783 2.38627 11.5976 2.51869 10.7921C2.67083 9.86654 3.13655 9.20013 3.80748 8.77914C4.40161 8.40635 5.12445 8.24532 5.86847 8.21945C6.41955 7.62729 7.02873 6.93114 7.66301 6.20464L7.7433 6.11267C8.40568 5.35391 9.09216 4.56755 9.75418 3.85138C10.4412 3.10815 11.1145 2.42655 11.7195 1.92247C12.0219 1.67043 12.3181 1.45355 12.5994 1.2946C12.8737 1.13952 13.1728 1.01697 13.4729 1.00068C13.6783 0.989532 13.9437 1.03549 14.1329 1.25965C14.3074 1.46639 14.3226 1.71709 14.3091 1.88872C14.2824 2.23041 14.1098 2.64819 13.9001 3.06165C13.4646 3.92036 12.712 5.05281 11.9183 6.16423C11.1201 7.28187 10.2638 8.4008 9.60821 9.23905C9.28015 9.6585 9.00177 10.0084 8.80528 10.2535C8.70703 10.3761 8.62922 10.4726 8.57588 10.5385L8.55201 10.568C8.12815 11.8315 7.50588 12.6809 6.77474 13.2184C6.02728 13.7679 5.20817 13.9604 4.46718 13.9792C3.73046 13.9978 3.05918 13.8456 2.5787 13.6934C2.33681 13.6168 2.1389 13.5388 1.99987 13.4792C1.93025 13.4494 1.87509 13.424 1.83624 13.4055C1.81681 13.3963 1.80143 13.3887 1.79033 13.3832L1.77691 13.3765L1.77266 13.3743L1.77116 13.3735L1.77056 13.3732C1.77031 13.3731 1.77007 13.373 2.00002 12.929Z" fill="currentColor"></path></svg>