<svg id="channel_discover_friend_24" viewBox="0 0 24 24" fill="none" xmlns="http://www.w3.org/2000/svg"><g clip-path="url(#clip0_137_8491)"><path fill-rule="evenodd" clip-rule="evenodd" d="M15.8837 20H21.5C22.3284 20 23 19.3284 23 18.5V18C23 15.2386 20.7614 13 18 13H16C14.8818 13 13.8493 13.3671 13.0165 13.9873C13.5331 14.314 13.9997 14.7127 14.4022 15.1692C14.8741 14.9023 15.4192 14.75 16 14.75H16.0039H16.0078H16.0117H16.0156H16.0195H16.0234H16.0273H16.0312H16.0351H16.0391H16.043H16.0469H16.0508H16.0547H16.0586H16.0625H16.0664H16.0703H16.0742H16.0781H16.082H16.0859H16.0898H16.0937H16.0976H16.1016H16.1055H16.1094H16.1133H16.1172H16.1211H16.125H16.1289H16.1328H16.1367H16.1406H16.1445H16.1484H16.1523H16.1562H16.1601H16.1641H16.168H16.1719H16.1758H16.1797H16.1836H16.1875H16.1914H16.1953H16.1992H16.2031H16.207H16.2109H16.2148H16.2187H16.2226H16.2266H16.2305H16.2344H16.2383H16.2422H16.2461H16.25H16.2539H16.2578H16.2617H16.2656H16.2695H16.2734H16.2773H16.2812H16.2851H16.2891H16.293H16.2969H16.3008H16.3047H16.3086H16.3125H16.3164H16.3203H16.3242H16.3281H16.332H16.3359H16.3398H16.3437H16.3476H16.3516H16.3555H16.3594H16.3633H16.3672H16.3711H16.375H16.3789H16.3828H16.3867H16.3906H16.3945H16.3984H16.4023H16.4062H16.4101H16.4141H16.418H16.4219H16.4258H16.4297H16.4336H16.4375H16.4414H16.4453H16.4492H16.4531H16.457H16.4609H16.4648H16.4687H16.4726H16.4766H16.4805H16.4844H16.4883H16.4922H16.4961H16.5H16.5039H16.5078H16.5117H16.5156H16.5195H16.5234H16.5273H16.5312H16.5351H16.5391H16.543H16.5469H16.5508H16.5547H16.5586H16.5625H16.5664H16.5703H16.5742H16.5781H16.582H16.5859H16.5898H16.5937H16.5976H16.6016H16.6055H16.6094H16.6133H16.6172H16.6211H16.625H16.6289H16.6328H16.6367H16.6406H16.6445H16.6484H16.6523H16.6562H16.6601H16.6641H16.668H16.6719H16.6758H16.6797H16.6836H16.6875H16.6914H16.6953H16.6992H16.7031H16.707H16.7109H16.7148H16.7187H16.7226H16.7266H16.7305H16.7344H16.7383H16.7422H16.7461H16.75H16.7539H16.7578H16.7617H16.7656H16.7695H16.7734H16.7773H16.7812H16.7851H16.7891H16.793H16.7969H16.8008H16.8047H16.8086H16.8125H16.8164H16.8203H16.8242H16.8281H16.832H16.8359H16.8398H16.8437H16.8476H16.8516H16.8555H16.8594H16.8633H16.8672H16.8711H16.875H16.8789H16.8828H16.8867H16.8906H16.8945H16.8984H16.9023H16.9062H16.9101H16.9141H16.918H16.9219H16.9258H16.9297H16.9336H16.9375H16.9414H16.9453H16.9492H16.9531H16.957H16.9609H16.9648H16.9687H16.9726H16.9766H16.9805H16.9844H16.9883H16.9922H16.9961H17H17.0039H17.0078H17.0117H17.0156H17.0195H17.0234H17.0273H17.0312H17.0351H17.0391H17.043H17.0469H17.0508H17.0547H17.0586H17.0625H17.0664H17.0703H17.0742H17.0781H17.082H17.0859H17.0898H17.0937H17.0976H17.1016H17.1055H17.1094H17.1133H17.1172H17.1211H17.125H17.1289H17.1328H17.1367H17.1406H17.1445H17.1484H17.1523H17.1562H17.1601H17.1641H17.168H17.1719H17.1758H17.1797H17.1836H17.1875H17.1914H17.1953H17.1992H17.2031H17.207H17.2109H17.2148H17.2187H17.2226H17.2266H17.2305H17.2344H17.2383H17.2422H17.2461H17.25H17.2539H17.2578H17.2617H17.2656H17.2695H17.2734H17.2773H17.2812H17.2851H17.2891H17.293H17.2969H17.3008H17.3047H17.3086H17.3125H17.3164H17.3203H17.3242H17.3281H17.332H17.3359H17.3398H17.3437H17.3476H17.3516H17.3555H17.3594H17.3633H17.3672H17.3711H17.375H17.3789H17.3828H17.3867H17.3906H17.3945H17.3984H17.4023H17.4062H17.4101H17.4141H17.418H17.4219H17.4258H17.4297H17.4336H17.4375H17.4414H17.4453H17.4492H17.4531H17.457H17.4609H17.4648H17.4687H17.4726H17.4766H17.4805H17.4844H17.4883H17.4922H17.4961H17.5H17.5039H17.5078H17.5117H17.5156H17.5195H17.5234H17.5273H17.5312H17.5351H17.5391H17.543H17.5469H17.5508H17.5547H17.5586H17.5625H17.5664H17.5703H17.5742H17.5781H17.582H17.5859H17.5898H17.5937H17.5976H17.6016H17.6055H17.6094H17.6133H17.6172H17.6211H17.625H17.6289H17.6328H17.6367H17.6406H17.6445H17.6484H17.6523H17.6562H17.6601H17.6641H17.668H17.6719H17.6758H17.6797H17.6836H17.6875H17.6914H17.6953H17.6992H17.7031H17.707H17.7109H17.7148H17.7187H17.7226H17.7266H17.7305H17.7344H17.7383H17.7422H17.7461H17.75H17.7539H17.7578H17.7617H17.7656H17.7695H17.7734H17.7773H17.7812H17.7851H17.7891H17.793H17.7969H17.8008H17.8047H17.8086H17.8125H17.8164H17.8203H17.8242H17.8281H17.832H17.8359H17.8398H17.8437H17.8476H17.8516H17.8555H17.8594H17.8633H17.8672H17.8711H17.875H17.8789H17.8828H17.8867H17.8906H17.8945H17.8984H17.9023H17.9062H17.9101H17.9141H17.918H17.9219H17.9258H17.9297H17.9336H17.9375H17.9414H17.9453H17.9492H17.9531H17.957H17.9609H17.9648H17.9687H17.9726H17.9766H17.9805H17.9844H17.9883H17.9922H17.9961H18C19.7949 14.75 21.25 16.2051 21.25 18V18.25H15.897C15.9646 18.6231 16 19.0074 16 19.4C16 19.6122 15.9587 19.8147 15.8837 20Z" fill="currentColor"></path><circle cx="9" cy="8" r="3.125" stroke="currentColor" stroke-width="1.75" stroke-linecap="square"></circle><circle cx="17" cy="9" r="2.125" stroke="currentColor" stroke-width="1.75" stroke-linecap="square"></circle><path d="M2.26316 20.125C2.04878 20.125 1.875 19.9512 1.875 19.7368C1.875 16.4994 4.49944 13.875 7.73684 13.875H7.74178H7.74671H7.75164H7.75658H7.76151H7.76645H7.77138H7.77632H7.78125H7.78618H7.79112H7.79605H7.80099H7.80592H7.81086H7.81579H7.82072H7.82566H7.83059H7.83553H7.84046H7.84539H7.85033H7.85526H7.8602H7.86513H7.87007H7.875H7.87993H7.88487H7.8898H7.89474H7.89967H7.90461H7.90954H7.91447H7.91941H7.92434H7.92928H7.93421H7.93914H7.94408H7.94901H7.95395H7.95888H7.96382H7.96875H7.97368H7.97862H7.98355H7.98849H7.99342H7.99836H8.00329H8.00822H8.01316H8.01809H8.02303H8.02796H8.03289H8.03783H8.04276H8.0477H8.05263H8.05757H8.0625H8.06743H8.07237H8.0773H8.08224H8.08717H8.09211H8.09704H8.10197H8.10691H8.11184H8.11678H8.12171H8.12664H8.13158H8.13651H8.14145H8.14638H8.15132H8.15625H8.16118H8.16612H8.17105H8.17599H8.18092H8.18586H8.19079H8.19572H8.20066H8.20559H8.21053H8.21546H8.22039H8.22533H8.23026H8.2352H8.24013H8.24507H8.25H8.25493H8.25987H8.2648H8.26974H8.27467H8.27961H8.28454H8.28947H8.29441H8.29934H8.30428H8.30921H8.31414H8.31908H8.32401H8.32895H8.33388H8.33882H8.34375H8.34868H8.35362H8.35855H8.36349H8.36842H8.37336H8.37829H8.38322H8.38816H8.39309H8.39803H8.40296H8.40789H8.41283H8.41776H8.4227H8.42763H8.43257H8.4375H8.44243H8.44737H8.4523H8.45724H8.46217H8.46711H8.47204H8.47697H8.48191H8.48684H8.49178H8.49671H8.50164H8.50658H8.51151H8.51645H8.52138H8.52632H8.53125H8.53618H8.54112H8.54605H8.55099H8.55592H8.56086H8.56579H8.57072H8.57566H8.58059H8.58553H8.59046H8.59539H8.60033H8.60526H8.6102H8.61513H8.62007H8.625H8.62993H8.63487H8.6398H8.64474H8.64967H8.65461H8.65954H8.66447H8.66941H8.67434H8.67928H8.68421H8.68914H8.69408H8.69901H8.70395H8.70888H8.71382H8.71875H8.72368H8.72862H8.73355H8.73849H8.74342H8.74836H8.75329H8.75822H8.76316H8.76809H8.77303H8.77796H8.78289H8.78783H8.79276H8.7977H8.80263H8.80757H8.8125H8.81743H8.82237H8.8273H8.83224H8.83717H8.84211H8.84704H8.85197H8.85691H8.86184H8.86678H8.87171H8.87664H8.88158H8.88651H8.89145H8.89638H8.90132H8.90625H8.91118H8.91612H8.92105H8.92599H8.93092H8.93586H8.94079H8.94572H8.95066H8.95559H8.96053H8.96546H8.97039H8.97533H8.98026H8.9852H8.99013H8.99507H9H9.00493H9.00987H9.0148H9.01974H9.02467H9.0296H9.03454H9.03947H9.04441H9.04934H9.05428H9.05921H9.06415H9.06908H9.07401H9.07895H9.08388H9.08882H9.09375H9.09868H9.10362H9.10855H9.11349H9.11842H9.12335H9.12829H9.13322H9.13816H9.14309H9.14803H9.15296H9.1579H9.16283H9.16776H9.1727H9.17763H9.18257H9.1875H9.19243H9.19737H9.2023H9.20724H9.21217H9.2171H9.22204H9.22697H9.23191H9.23684H9.24178H9.24671H9.25165H9.25658H9.26151H9.26645H9.27138H9.27632H9.28125H9.28618H9.29112H9.29605H9.30099H9.30592H9.31085H9.31579H9.32072H9.32566H9.33059H9.33553H9.34046H9.3454H9.35033H9.35526H9.3602H9.36513H9.37007H9.375H9.37993H9.38487H9.3898H9.39474H9.39967H9.4046H9.40954H9.41447H9.41941H9.42434H9.42928H9.43421H9.43915H9.44408H9.44901H9.45395H9.45888H9.46382H9.46875H9.47368H9.47862H9.48355H9.48849H9.49342H9.49835H9.50329H9.50822H9.51316H9.51809H9.52303H9.52796H9.5329H9.53783H9.54276H9.5477H9.55263H9.55757H9.5625H9.56743H9.57237H9.5773H9.58224H9.58717H9.5921H9.59704H9.60197H9.60691H9.61184H9.61678H9.62171H9.62665H9.63158H9.63651H9.64145H9.64638H9.65132H9.65625H9.66118H9.66612H9.67105H9.67599H9.68092H9.68585H9.69079H9.69572H9.70066H9.70559H9.71053H9.71546H9.7204H9.72533H9.73026H9.7352H9.74013H9.74507H9.75H9.75493H9.75987H9.7648H9.76974H9.77467H9.7796H9.78454H9.78947H9.79441H9.79934H9.80428H9.80921H9.81415H9.81908H9.82401H9.82895H9.83388H9.83882H9.84375H9.84868H9.85362H9.85855H9.86349H9.86842H9.87335H9.87829H9.88322H9.88816H9.89309H9.89803H9.90296H9.9079H9.91283H9.91776H9.9227H9.92763H9.93257H9.9375H9.94243H9.94737H9.9523H9.95724H9.96217H9.9671H9.97204H9.97697H9.98191H9.98684H9.99178H9.99671H10.0016H10.0066H10.0115H10.0164H10.0214H10.0263H10.0312H10.0362H10.0411H10.0461H10.051H10.0559H10.0609H10.0658H10.0707H10.0757H10.0806H10.0855H10.0905H10.0954H10.1003H10.1053H10.1102H10.1151H10.1201H10.125H10.1299H10.1349H10.1398H10.1447H10.1497H10.1546H10.1595H10.1645H10.1694H10.1743H10.1793H10.1842H10.1891H10.1941H10.199H10.2039H10.2089H10.2138H10.2188H10.2237H10.2286H10.2336H10.2385H10.2434H10.2484H10.2533H10.2582H10.2632C13.5006 13.875 16.125 16.4994 16.125 19.7368C16.125 19.9512 15.9512 20.125 15.7368 20.125H2.26316Z" stroke="currentColor" stroke-width="1.75" stroke-linecap="square"></path></g><defs><clipPath id="clip0_137_8491"><rect width="24" height="24" fill="white"></rect></clipPath></defs></svg>