<svg id="channel_discover_star_24" viewBox="0 0 24 24" fill="none" xmlns="http://www.w3.org/2000/svg"><path d="M14.6872 8.21544L14.8892 8.61267L15.3292 8.68292L20.9328 9.57738C20.9665 9.58276 20.9841 9.59412 20.9957 9.6044C21.0098 9.61693 21.0236 9.63647 21.0319 9.66212C21.0403 9.68777 21.0406 9.7117 21.0366 9.73013C21.0333 9.74523 21.0257 9.76482 21.0017 9.78899L16.9898 13.8208L16.6767 14.1354L16.7456 14.5738L17.6294 20.1979C17.6347 20.2317 17.6294 20.252 17.6232 20.2662C17.6156 20.2834 17.6012 20.3026 17.5793 20.3185C17.5574 20.3344 17.5347 20.342 17.5159 20.3439C17.5006 20.3454 17.4796 20.3442 17.4491 20.3286L12.3979 17.7496L12 17.5464L11.6021 17.7496L6.55089 20.3286C6.52042 20.3442 6.49943 20.3454 6.48407 20.3439C6.4653 20.3421 6.44258 20.3344 6.42068 20.3185C6.39879 20.3026 6.38443 20.2834 6.37684 20.2662C6.37063 20.252 6.36526 20.2317 6.37057 20.1979L7.25439 14.5738L7.32329 14.1354L7.01025 13.8208L2.99831 9.78899C2.97425 9.76482 2.96666 9.74523 2.96338 9.73013C2.95937 9.7117 2.95971 9.68777 2.96806 9.66212C2.97641 9.63647 2.99023 9.61693 3.00432 9.6044C3.01587 9.59412 3.03354 9.58276 3.06721 9.57738L8.67075 8.68292L9.11081 8.61267L9.31279 8.21544L11.8886 3.14967C11.9041 3.11911 11.9204 3.1058 11.9337 3.098C11.95 3.08847 11.9729 3.08133 12 3.08133C12.0271 3.08133 12.05 3.08847 12.0663 3.098C12.0796 3.1058 12.0959 3.11911 12.1114 3.14967L14.6872 8.21544Z" stroke="currentColor" stroke-width="1.75"></path></svg>