<svg id="filelook_image_16" viewBox="0 0 40 40" fill="none" xmlns="http://www.w3.org/2000/svg"><rect x="-0.00012207" width="40" height="40" fill="#0099FF"></rect><path d="M9.23022 12.3077C9.23022 11.4581 9.91902 10.7693 10.7687 10.7693H29.2302C30.0799 10.7693 30.7687 11.4581 30.7687 12.3077V27.6924C30.7687 28.542 30.0799 29.2308 29.2302 29.2308H10.7687C9.91902 29.2308 9.23022 28.542 9.23022 27.6924V12.3077Z" fill="white"></path><path d="M10.7687 10.577C9.81281 10.577 9.03792 11.3519 9.03792 12.3077V27.6924C9.03792 28.6482 9.81281 29.4231 10.7687 29.4231H29.2302C30.1861 29.4231 30.961 28.6482 30.961 27.6924V12.3077C30.961 11.3519 30.1861 10.577 29.2302 10.577H10.7687Z" stroke="currentColor" stroke-opacity="0.06" stroke-width="0.384615"></path><path fill-rule="evenodd" clip-rule="evenodd" d="M24.6148 29.2305C24.4225 26.1535 21.7203 23.092 18.886 21.3745C16.0518 19.6569 12.7795 18.6635 9.23022 18.8458V27.692C9.23022 28.5417 9.91916 29.2305 10.7688 29.2305C15.5127 29.2305 19.7498 29.2305 24.6148 29.2305Z" fill="#0099FF" fill-opacity="0.4"></path><circle cx="24.6148" cy="16.9231" r="1.92308" fill="#0099FF"></circle></svg>