<svg id="filelook_doc_16" viewBox="0 0 40 40" fill="none" xmlns="http://www.w3.org/2000/svg"><rect x="-0.000244141" width="40" height="40" fill="#1D67C7"></rect><path d="M10.7683 10.7692C10.7683 9.91951 11.4571 9.23071 12.3068 9.23071H23.8452L29.2298 14.6153V29.2307C29.2298 30.0804 28.5411 30.7692 27.6914 30.7692H12.3068C11.4571 30.7692 10.7683 30.0804 10.7683 29.2307V10.7692Z" fill="white"></path><path d="M23.9812 9.09473L23.9249 9.03841H23.8452H12.3068C11.3509 9.03841 10.576 9.8133 10.576 10.7692V29.2307C10.576 30.1866 11.3509 30.9615 12.3068 30.9615H27.6914C28.6473 30.9615 29.4222 30.1866 29.4222 29.2307V14.6153V14.5357L29.3658 14.4793L23.9812 9.09473Z" stroke="currentColor" stroke-opacity="0.06" stroke-width="0.384615"></path><path d="M16.5102 23.6154L14.415 16.3426H16.2225L17.3767 21.2503H17.437L18.7261 16.3426H20.2389L21.5279 21.261H21.5883L22.7389 16.3426H24.5499L22.4512 23.6154H20.8568L19.5109 19.0344H19.4541L18.1082 23.6154H16.5102Z" fill="#1D67C7"></path><path d="M23.8457 13.0769V9.23077L29.2303 14.6154H25.3842C24.5345 14.6154 23.8457 13.9266 23.8457 13.0769Z" fill="#1D67C7" fill-opacity="0.4"></path></svg>