<svg id="files_16" viewBox="0 0 16 16" fill="none" xmlns="http://www.w3.org/2000/svg"><path fill-rule="evenodd" clip-rule="evenodd" d="M3 12.9998V2H10.9638L13 3.67029V12.9998L3 12.9998ZM2 12.9998V2C2 1.44772 2.44771 1 3 1H11.083C11.2372 1 11.3866 1.05344 11.5058 1.15123L13.7561 2.99715C13.9105 3.12378 14 3.31293 14 3.51259V12.9998C14 13.5521 13.5523 13.9998 13 13.9998H3C2.44772 13.9998 2 13.5521 2 12.9998ZM5 5.99984H9V4.99984H5V5.99984ZM11 7.99984H5V6.99984H11V7.99984ZM5 9.99984H11V8.99984H5V9.99984Z" fill="currentColor"></path></svg>