<svg id="filelook_pdf_16" viewBox="0 0 40 40" fill="none" xmlns="http://www.w3.org/2000/svg"><rect x="-0.000976562" width="40" height="40" fill="#F74C30"></rect><path d="M10.7675 10.7692C10.7675 9.91957 11.4562 9.23077 12.3059 9.23077H23.8444L29.229 14.6154V29.2308C29.229 30.0804 28.5402 30.7692 27.6905 30.7692H12.3059C11.4562 30.7692 10.7675 30.0804 10.7675 29.2308V10.7692Z" fill="white"></path><path d="M23.9804 9.09479L23.924 9.03847H23.8444H12.3059C11.35 9.03847 10.5751 9.81336 10.5751 10.7692V29.2308C10.5751 30.1867 11.35 30.9615 12.3059 30.9615H27.6905C28.6464 30.9615 29.4213 30.1866 29.4213 29.2308V14.6154V14.5357L29.365 14.4794L23.9804 9.09479Z" stroke="currentColor" stroke-opacity="0.06" stroke-width="0.384615"></path><path d="M13.5127 22.7692V17.7343H15.4991C15.881 17.7343 16.2064 17.8072 16.4752 17.9531C16.7439 18.0973 16.9488 18.2981 17.0898 18.5554C17.2324 18.8111 17.3037 19.1061 17.3037 19.4404C17.3037 19.7748 17.2315 20.0698 17.0873 20.3255C16.9431 20.5812 16.7341 20.7803 16.4604 20.9229C16.1883 21.0655 15.8589 21.1368 15.4721 21.1368H14.206V20.2837H15.3C15.5049 20.2837 15.6737 20.2485 15.8064 20.178C15.9408 20.1059 16.0408 20.0067 16.1064 19.8805C16.1736 19.7527 16.2072 19.606 16.2072 19.4404C16.2072 19.2733 16.1736 19.1274 16.1064 19.0028C16.0408 18.8766 15.9408 18.7791 15.8064 18.7103C15.672 18.6398 15.5016 18.6046 15.2951 18.6046H14.5772V22.7692H13.5127ZM19.78 22.7692H17.9951V17.7343H19.7947C20.3012 17.7343 20.7371 17.8351 21.1026 18.0367C21.4681 18.2366 21.7492 18.5243 21.9459 18.8996C22.1442 19.2749 22.2434 19.724 22.2434 20.2468C22.2434 20.7713 22.1442 21.222 21.9459 21.599C21.7492 21.976 21.4665 22.2652 21.0977 22.4668C20.7306 22.6684 20.2913 22.7692 19.78 22.7692ZM19.0596 21.8571H19.7357C20.0504 21.8571 20.3151 21.8014 20.5298 21.69C20.7461 21.5769 20.9084 21.4023 21.0166 21.1663C21.1264 20.9286 21.1813 20.6222 21.1813 20.2468C21.1813 19.8748 21.1264 19.5707 21.0166 19.3347C20.9084 19.0987 20.747 18.925 20.5323 18.8135C20.3175 18.7021 20.0529 18.6464 19.7382 18.6464H19.0596V21.8571ZM23.0319 22.7692V17.7343H26.3656V18.6119H24.0964V19.8117H26.1443V20.6894H24.0964V22.7692H23.0319Z" fill="#F74C30"></path><path d="M23.8447 13.0769V9.23077L29.2293 14.6154H25.3832C24.5335 14.6154 23.8447 13.9266 23.8447 13.0769Z" fill="#F74C30" fill-opacity="0.4"></path></svg>