<svg id="filelook_folder_16" viewBox="0 0 40 40" fill="none" xmlns="http://www.w3.org/2000/svg"><rect width="40" height="40" rx="4" fill="#0099FF"></rect><path d="M10.7698 9.23076C9.92012 9.23076 9.23132 9.91955 9.23132 10.7692V15H30.7698V13.8461C30.7698 12.9965 30.081 12.3077 29.2313 12.3077H19.8082L17.3795 9.717C17.0886 9.40677 16.6824 9.23076 16.2571 9.23076H10.7698Z" fill="white"></path><path d="M9.23132 16.5385H30.7698V28.1216C30.7698 29.159 29.9826 30 29.0115 30H10.55C9.82172 30 9.23132 29.3693 9.23132 28.5912V16.5385Z" fill="white"></path><path d="M9.03902 15V15.1923H9.23132H30.7698H30.9621V15V13.8461C30.9621 12.8903 30.1872 12.1154 29.2313 12.1154H19.8916L17.5198 9.58548C17.1926 9.23647 16.7355 9.03845 16.2571 9.03845H10.7698C9.81391 9.03845 9.03902 9.81334 9.03902 10.7692V15ZM9.23132 16.3461H9.03902V16.5385V28.5912C9.03902 29.4633 9.70373 30.1923 10.55 30.1923H29.0115C30.1006 30.1923 30.9621 29.253 30.9621 28.1216V16.5385V16.3461H30.7698H9.23132Z" stroke="currentColor" stroke-opacity="0.06" stroke-width="0.384615"></path></svg>