<svg id="filelook_ai_16" viewBox="0 0 40 40" fill="none" xmlns="http://www.w3.org/2000/svg"><rect x="-0.000732422" width="40" height="40" fill="#FE9900"></rect><path d="M10.7677 10.7692C10.7677 9.91957 11.4565 9.23077 12.3062 9.23077H23.8446L29.2292 14.6154V29.2308C29.2292 30.0804 28.5404 30.7692 27.6908 30.7692H12.3062C11.4565 30.7692 10.7677 30.0804 10.7677 29.2308V10.7692Z" fill="white"></path><path d="M23.9806 9.09479L23.9243 9.03847H23.8446H12.3062C11.3503 9.03847 10.5754 9.81336 10.5754 10.7692V29.2308C10.5754 30.1867 11.3503 30.9615 12.3062 30.9615H27.6908C28.6467 30.9615 29.4215 30.1866 29.4215 29.2308V14.6154V14.5357L29.3652 14.4794L23.9806 9.09479Z" stroke="currentColor" stroke-opacity="0.06" stroke-width="0.384615"></path><path d="M16.617 23.6154H14.8485L17.3308 16.3426H19.4934L21.9756 23.6154H20.2072L18.4423 18.0898H18.3854L16.617 23.6154ZM16.443 20.7531H20.3634V22.0244H16.443V20.7531ZM22.8102 23.6154V18.1608H24.433V23.6154H22.8102ZM23.6234 17.4896C23.389 17.4896 23.1878 17.4115 23.0197 17.2553C22.8516 17.099 22.7675 16.912 22.7675 16.6942C22.7675 16.474 22.8516 16.2858 23.0197 16.1296C23.1878 15.9733 23.389 15.8952 23.6234 15.8952C23.8601 15.8952 24.0613 15.9733 24.2271 16.1296C24.3951 16.2858 24.4792 16.474 24.4792 16.6942C24.4792 16.912 24.3951 17.099 24.2271 17.2553C24.0613 17.4115 23.8601 17.4896 23.6234 17.4896Z" fill="#FE9900"></path><path d="M23.845 13.0769V9.23077L29.2296 14.6154H25.3834C24.5338 14.6154 23.845 13.9266 23.845 13.0769Z" fill="#FE9900" fill-opacity="0.4"></path></svg>