<svg id="filelook_apk_16" viewBox="0 0 40 40" fill="none" xmlns="http://www.w3.org/2000/svg"><rect x="0.000244141" width="40" height="40" fill="#00D689"></rect><path d="M10.7698 10.7692C10.7698 9.91957 11.4586 9.23077 12.3082 9.23077H23.8467L29.2313 14.6154V29.2308C29.2313 30.0804 28.5425 30.7692 27.6929 30.7692H12.3082C11.4586 30.7692 10.7698 30.0804 10.7698 29.2308V10.7692Z" fill="white"></path><path d="M23.9827 9.09479L23.9264 9.03847H23.8467H12.3082C11.3524 9.03847 10.5775 9.81336 10.5775 10.7692V29.2308C10.5775 30.1867 11.3524 30.9615 12.3082 30.9615H27.6929C28.6487 30.9615 29.4236 30.1866 29.4236 29.2308V14.6154V14.5357L29.3673 14.4794L23.9827 9.09479Z" stroke="currentColor" stroke-opacity="0.06" stroke-width="0.384615"></path><path fill-rule="evenodd" clip-rule="evenodd" d="M20.0006 16.9232C17.4516 16.9232 15.3853 18.9895 15.3853 21.5385H24.616C24.616 18.9895 22.5496 16.9232 20.0006 16.9232ZM18.4623 19.6154C18.4623 19.8279 18.2901 20.0001 18.0776 20.0001C17.8652 20.0001 17.693 19.8279 17.693 19.6154C17.693 19.403 17.8652 19.2308 18.0776 19.2308C18.2901 19.2308 18.4623 19.403 18.4623 19.6154ZM22.3089 19.6154C22.3089 19.8279 22.1367 20.0001 21.9243 20.0001C21.7119 20.0001 21.5397 19.8279 21.5397 19.6154C21.5397 19.403 21.7119 19.2308 21.9243 19.2308C22.1367 19.2308 22.3089 19.403 22.3089 19.6154Z" fill="#00D689"></path><rect x="23.9877" y="15.5703" width="0.576923" height="3.46234" rx="0.288462" transform="rotate(45 23.9877 15.5703)" fill="#00D689"></rect><rect width="0.576923" height="3.46227" rx="0.288462" transform="matrix(-0.707107 0.707107 0.707107 0.707107 16.0004 15.5687)" fill="#00D689"></rect><rect x="15.3853" y="22.3077" width="9.23077" height="1.53846" fill="#00D689"></rect><path d="M23.847 12.6923V8.84613L29.2317 14.2307H25.3855C24.5358 14.2307 23.847 13.542 23.847 12.6923Z" fill="#00D689" fill-opacity="0.4"></path></svg>