<svg id="filelook_ps_16" viewBox="0 0 40 40" fill="none" xmlns="http://www.w3.org/2000/svg"><rect width="40" height="40" fill="#0099FF"></rect><path d="M10.7694 10.7692C10.7694 9.91957 11.4582 9.23077 12.3079 9.23077H23.8463L29.2309 14.6154V29.2308C29.2309 30.0804 28.5422 30.7692 27.6925 30.7692H12.3079C11.4582 30.7692 10.7694 30.0804 10.7694 29.2308V10.7692Z" fill="white"></path><path d="M23.9823 9.09479L23.926 9.03847H23.8463H12.3079C11.352 9.03847 10.5771 9.81336 10.5771 10.7692V29.2308C10.5771 30.1867 11.352 30.9615 12.3079 30.9615H27.6925C28.6484 30.9615 29.4233 30.1866 29.4233 29.2308V14.6154V14.5357L29.3669 14.4794L23.9823 9.09479Z" stroke="currentColor" stroke-opacity="0.06" stroke-width="0.384615"></path><path d="M14.4386 23.6154V16.3426H17.3719C17.9211 16.3426 18.3922 16.448 18.7852 16.6587C19.1782 16.8694 19.4789 17.1618 19.6872 17.5358C19.8979 17.9099 20.0033 18.3419 20.0033 18.832C20.0033 19.3244 19.8955 19.7576 19.6801 20.1317C19.467 20.5034 19.1604 20.7922 18.7604 20.9982C18.3626 21.2041 17.8844 21.3071 17.3257 21.3071H15.4862V20.0003H17.0416C17.321 20.0003 17.553 19.9518 17.7376 19.8547C17.9247 19.7553 18.0655 19.618 18.1602 19.4428C18.2549 19.2676 18.3023 19.064 18.3023 18.832C18.3023 18.6 18.2549 18.3976 18.1602 18.2247C18.0655 18.0519 17.9247 17.9181 17.7376 17.8235C17.5506 17.7288 17.3162 17.6814 17.0345 17.6814H16.0828V23.6154H14.4386ZM25.567 19.7695L24.0791 19.8334C24.0578 19.7174 24.0092 19.6132 23.9335 19.5209C23.8577 19.4286 23.7583 19.3564 23.6352 19.3043C23.5144 19.2498 23.3724 19.2226 23.209 19.2226C22.9912 19.2226 22.8066 19.2676 22.6551 19.3575C22.5035 19.4451 22.429 19.5635 22.4313 19.7127C22.429 19.831 22.4751 19.9328 22.5698 20.0181C22.6669 20.1033 22.8374 20.1708 23.0812 20.2205L24.0968 20.4193C24.6342 20.5259 25.0343 20.6999 25.2971 20.9414C25.5623 21.1828 25.6948 21.5012 25.6948 21.8966C25.6948 22.2612 25.5871 22.5808 25.3717 22.8554C25.1586 23.13 24.8662 23.3431 24.4946 23.4946C24.1229 23.6438 23.6967 23.7183 23.2161 23.7183C22.468 23.7183 21.8738 23.5633 21.4335 23.2531C20.9955 22.9406 20.7434 22.5192 20.6771 21.9889L22.2786 21.9321C22.3189 22.1405 22.4219 22.2991 22.5876 22.408C22.7533 22.5169 22.9652 22.5713 23.2232 22.5713C23.4671 22.5713 23.6648 22.5252 23.8163 22.4328C23.9678 22.3405 24.0436 22.2186 24.0436 22.0671C24.0436 21.9392 23.9879 21.8339 23.8767 21.751C23.7654 21.6681 23.5949 21.6042 23.3653 21.5592L22.4136 21.3781C21.8762 21.274 21.4749 21.0893 21.2098 20.8242C20.947 20.559 20.8156 20.2193 20.8156 19.805C20.8156 19.4475 20.9126 19.1409 21.1068 18.8852C21.3009 18.6296 21.5743 18.4331 21.9271 18.2958C22.2822 18.1584 22.6989 18.0898 23.1771 18.0898C23.892 18.0898 24.4543 18.2401 24.8639 18.5408C25.2758 18.8391 25.5102 19.2486 25.567 19.7695Z" fill="#0099FF"></path><path d="M23.8456 13.0769V9.23077L29.2302 14.6154H25.384C24.5344 14.6154 23.8456 13.9266 23.8456 13.0769Z" fill="#0099FF" fill-opacity="0.4"></path></svg>