<svg id="filelook_xls_16" viewBox="0 0 40 40" fill="none" xmlns="http://www.w3.org/2000/svg"><rect width="40" height="40" fill="#0C7639"></rect><path d="M10.7694 10.7692C10.7694 9.91957 11.4582 9.23077 12.3079 9.23077H23.8463L29.2309 14.6154V29.2308C29.2309 30.0804 28.5422 30.7692 27.6925 30.7692H12.3079C11.4582 30.7692 10.7694 30.0804 10.7694 29.2308V10.7692Z" fill="white"></path><path d="M23.9823 9.09479L23.926 9.03847H23.8463H12.3079C11.352 9.03847 10.5771 9.81336 10.5771 10.7692V29.2308C10.5771 30.1867 11.352 30.9615 12.3079 30.9615H27.6925C28.6484 30.9615 29.4233 30.1866 29.4233 29.2308V14.6154V14.5357L29.3669 14.4794L23.9823 9.09479Z" stroke="currentColor" stroke-opacity="0.06" stroke-width="0.384615"></path><path d="M18.3559 16.3427L19.755 18.7326H19.8118L21.2181 16.3427H23.0718L20.863 19.9791L23.1286 23.6154H21.2394L19.8118 21.2148H19.755L18.3275 23.6154H16.4454L18.7074 19.9791L16.4951 16.3427H18.3559Z" fill="#117F43"></path><path d="M23.8456 13.0769V9.23077L29.2302 14.6154H25.384C24.5344 14.6154 23.8456 13.9266 23.8456 13.0769Z" fill="#117F43" fill-opacity="0.4"></path></svg>