<svg id="filelook_video_16" viewBox="0 0 40 40" fill="none" xmlns="http://www.w3.org/2000/svg"><rect x="0.000244141" width="40" height="40" fill="#6F7DE8"></rect><path d="M9.23071 12.3078C9.23071 11.4581 9.91951 10.7693 10.7692 10.7693H29.2307C30.0804 10.7693 30.7692 11.4581 30.7692 12.3078V27.6924C30.7692 28.5421 30.0804 29.2309 29.2307 29.2309H10.7692C9.91951 29.2309 9.23071 28.5421 9.23071 27.6924V12.3078Z" fill="white"></path><path d="M10.7692 10.577C9.8133 10.577 9.03841 11.3519 9.03841 12.3078V27.6924C9.03841 28.6483 9.8133 29.4232 10.7692 29.4232H29.2307C30.1866 29.4232 30.9615 28.6483 30.9615 27.6924V12.3078C30.9615 11.3519 30.1866 10.577 29.2307 10.577H10.7692Z" stroke="currentColor" stroke-opacity="0.06" stroke-width="0.384615"></path><path d="M17.308 23.6243V16.3758C17.308 15.7834 17.9648 15.427 18.4615 15.7498L24.0372 19.3741C24.4902 19.6685 24.4902 20.3316 24.0372 20.626L18.4615 24.2503C17.9648 24.5731 17.308 24.2167 17.308 23.6243Z" fill="#6F7DE8"></path></svg>