<svg id="filelook_multi_files_16" viewBox="0 0 40 40" fill="none" xmlns="http://www.w3.org/2000/svg"><rect x="-0.000244141" y="0.0000305176" width="40" height="40" rx="4" fill="#0099FF"></rect><path d="M20.5214 7.25148C20.7073 6.92956 21.1189 6.81926 21.4408 7.00512L30.7673 12.3897C31.0892 12.5756 31.1995 12.9873 31.0136 13.3092L28.0945 18.3652H16.5439L15.2976 17.6456C14.9756 17.4597 14.8653 17.0481 15.0512 16.7261L20.5214 7.25148Z" fill="white" fill-opacity="0.4" stroke="url(#paint0_linear_16550_66749)" stroke-width="0.192308"></path><g filter="url(#filter0_b_16550_66749)"><path d="M17.3768 7.12116C16.9664 7.0112 16.5446 7.25473 16.4347 7.66509L13.5417 18.4616H26.2836L28.323 10.8506C28.4329 10.4402 28.1894 10.0184 27.779 9.90844L17.3768 7.12116Z" fill="#FF7F5A"></path><path d="M16.5275 7.68997C16.6237 7.33091 16.9928 7.11783 17.3519 7.21404L27.7542 10.0013C28.1132 10.0975 28.3263 10.4666 28.2301 10.8257L26.2098 18.3654H13.6671L16.5275 7.68997Z" stroke="url(#paint1_linear_16550_66749)" stroke-width="0.192308"></path></g><g filter="url(#filter1_b_16550_66749)"><rect x="11.1528" y="8.46158" width="12.3077" height="11.5385" rx="0.769231" fill="#FFC107" fill-opacity="0.8"></rect><rect x="11.249" y="8.55773" width="12.1154" height="11.3462" rx="0.673077" stroke="url(#paint2_linear_16550_66749)" stroke-width="0.192308"></rect></g><path d="M9.23022 14.2308C9.23022 13.3811 9.91902 12.6924 10.7687 12.6924H16.256C16.6813 12.6924 17.0875 12.8684 17.3784 13.1786L19.8071 15.7693H29.2302C30.0799 15.7693 30.7687 16.4581 30.7687 17.3077V28.8462C30.7687 29.6959 30.0799 30.3847 29.2302 30.3847H10.7687C9.91902 30.3847 9.23022 29.6959 9.23022 28.8462V14.2308Z" fill="white"></path><path d="M10.7687 12.5C9.81281 12.5 9.03792 13.2749 9.03792 14.2308V28.8462C9.03792 29.8021 9.81281 30.577 10.7687 30.577H29.2302C30.1861 30.577 30.961 29.8021 30.961 28.8462V17.3077C30.961 16.3519 30.1861 15.577 29.2302 15.577H19.8905L17.5187 13.0471C17.1915 12.6981 16.7344 12.5 16.256 12.5H10.7687Z" stroke="currentColor" stroke-opacity="0.06" stroke-width="0.384615"></path><path opacity="0.4" d="M19.807 26.8516H18.4188C18.3767 26.8516 18.3496 26.8426 18.3376 26.8246C18.3316 26.8005 18.3376 26.7705 18.3557 26.7344L20.7445 20.7038V20.6677H19.1579C19.1399 20.6677 19.1249 20.6737 19.1129 20.6857C19.1008 20.6978 19.0948 20.7158 19.0948 20.7398V21.5241C19.0948 21.5601 19.0858 21.5872 19.0678 21.6052C19.0498 21.6232 19.0227 21.6323 18.9867 21.6323H17.7517C17.7156 21.6323 17.6886 21.6232 17.6706 21.6052C17.6525 21.5872 17.6435 21.5601 17.6435 21.5241V19.4327C17.6435 19.3967 17.6525 19.3696 17.6706 19.3516C17.6886 19.3336 17.7156 19.3246 17.7517 19.3246H22.2589C22.301 19.3246 22.331 19.3336 22.349 19.3516C22.3671 19.3696 22.3761 19.3967 22.3761 19.4327V20.5866C22.3761 20.6046 22.3731 20.6256 22.3671 20.6497C22.3671 20.6737 22.3611 20.6948 22.349 20.7128L19.9602 26.7524C19.9422 26.7885 19.9212 26.8155 19.8971 26.8336C19.8731 26.8456 19.843 26.8516 19.807 26.8516Z" fill="#0099FF"></path><defs><filter id="filter0_b_16550_66749" x="12.0033" y="5.5563" width="17.8845" height="14.4437" filterUnits="userSpaceOnUse" color-interpolation-filters="sRGB"><feFlood flood-opacity="0" result="BackgroundImageFix"></feFlood><feGaussianBlur in="BackgroundImageFix" stdDeviation="0.769231"></feGaussianBlur><feComposite in2="SourceAlpha" operator="in" result="effect1_backgroundBlur_16550_66749"></feComposite><feBlend mode="normal" in="SourceGraphic" in2="effect1_backgroundBlur_16550_66749" result="shape"></feBlend></filter><filter id="filter1_b_16550_66749" x="9.61437" y="6.92312" width="15.3845" height="14.6154" filterUnits="userSpaceOnUse" color-interpolation-filters="sRGB"><feFlood flood-opacity="0" result="BackgroundImageFix"></feFlood><feGaussianBlur in="BackgroundImageFix" stdDeviation="0.769231"></feGaussianBlur><feComposite in2="SourceAlpha" operator="in" result="effect1_backgroundBlur_16550_66749"></feComposite><feBlend mode="normal" in="SourceGraphic" in2="effect1_backgroundBlur_16550_66749" result="shape"></feBlend></filter><linearGradient id="paint0_linear_16550_66749" x1="26.5377" y1="9.23099" x2="21.8052" y2="17.6506" gradientUnits="userSpaceOnUse"><stop stop-color="white" stop-opacity="0.2"></stop><stop offset="0.317965" stop-color="white" stop-opacity="0"></stop></linearGradient><linearGradient id="paint1_linear_16550_66749" x1="22.6913" y1="8.26926" x2="19.999" y2="17.8846" gradientUnits="userSpaceOnUse"><stop stop-color="white" stop-opacity="0.2"></stop><stop offset="0.436956" stop-color="white" stop-opacity="0"></stop></linearGradient><linearGradient id="paint2_linear_16550_66749" x1="17.3067" y1="8.46158" x2="17.3067" y2="13.8462" gradientUnits="userSpaceOnUse"><stop stop-color="white" stop-opacity="0.3"></stop><stop offset="0.778955" stop-color="white" stop-opacity="0"></stop></linearGradient></defs></svg>