<svg id="filelook_html_16" viewBox="0 0 40 40" fill="none" xmlns="http://www.w3.org/2000/svg"><rect x="0.00012207" width="40" height="40" fill="#91999E"></rect><path d="M10.7694 10.7692C10.7694 9.91957 11.4582 9.23077 12.3079 9.23077H23.8232L29.2309 14.6154V29.2308C29.2309 30.0804 28.5422 30.7692 27.6925 30.7692H12.3079C11.4582 30.7692 10.7694 30.0804 10.7694 29.2308V10.7692Z" fill="white"></path><path d="M23.9589 9.0945L23.9026 9.03847H23.8232H12.3079C11.352 9.03847 10.5771 9.81336 10.5771 10.7692V29.2308C10.5771 30.1867 11.352 30.9615 12.3079 30.9615H27.6925C28.6484 30.9615 29.4233 30.1867 29.4233 29.2308V14.6154V14.5355L29.3666 14.4791L23.9589 9.0945Z" stroke="currentColor" stroke-opacity="0.06" stroke-width="0.384615"></path><path d="M23.2323 18.1378L25.3849 20.2904L23.2323 22.4429" stroke="#91999E" stroke-width="1.53846"></path><path d="M16.8231 18.1378L14.6706 20.2903L16.8231 22.4429" stroke="#91999E" stroke-width="1.53846"></path><line x1="21.0446" y1="17.4749" x2="19.3704" y2="22.8485" stroke="#91999E" stroke-width="1.53846"></line><path d="M23.8468 13.0769V9.23077L29.2314 14.6154H25.3853C24.5356 14.6154 23.8468 13.9266 23.8468 13.0769Z" fill="#91999E" fill-opacity="0.4"></path></svg>