<svg id="filelook_ipa_16" viewBox="0 0 40 40" fill="none" xmlns="http://www.w3.org/2000/svg"><rect x="-0.00012207" width="40" height="40" fill="#91999E"></rect><path d="M10.7692 10.7692C10.7692 9.91957 11.458 9.23077 12.3076 9.23077H23.8461L29.2307 14.6154V29.2308C29.2307 30.0804 28.5419 30.7692 27.6922 30.7692H12.3076C11.458 30.7692 10.7692 30.0804 10.7692 29.2308V10.7692Z" fill="white"></path><path d="M23.9821 9.09479L23.9257 9.03847H23.8461H12.3076C11.3517 9.03847 10.5769 9.81336 10.5769 10.7692V29.2308C10.5769 30.1867 11.3517 30.9615 12.3076 30.9615H27.6922C28.6481 30.9615 29.423 30.1866 29.423 29.2308V14.6154V14.5357L29.3667 14.4794L23.9821 9.09479Z" stroke="currentColor" stroke-opacity="0.06" stroke-width="0.384615"></path><path d="M20.15 17.8335C19.8001 17.8335 19.2585 17.4357 18.6882 17.45C17.9357 17.4596 17.2455 17.8862 16.8573 18.562C16.076 19.9184 16.656 21.9218 17.418 23.0241C17.7919 23.5609 18.2328 24.1648 18.8176 24.1457C19.3783 24.1217 19.5892 23.7814 20.2698 23.7814C20.9456 23.7814 21.1373 24.1457 21.7316 24.1313C22.3355 24.1217 22.719 23.5849 23.088 23.0433C23.5146 22.4202 23.6919 21.8163 23.7015 21.7828C23.6871 21.778 22.5272 21.3323 22.5129 19.9903C22.5033 18.8687 23.4283 18.3319 23.4714 18.308C22.9442 17.5363 22.1342 17.45 21.8514 17.4309C21.1133 17.3733 20.4951 17.8335 20.15 17.8335ZM21.3961 16.7023C21.7077 16.3285 21.9138 15.8061 21.8562 15.2885C21.4105 15.3076 20.8737 15.5856 20.5526 15.9595C20.265 16.2902 20.0158 16.8222 20.0829 17.3302C20.5765 17.3686 21.0846 17.0762 21.3961 16.7023Z" fill="#91999E"></path><path d="M23.8453 12.6923V8.84613L29.23 14.2307H25.3838C24.5341 14.2307 23.8453 13.542 23.8453 12.6923Z" fill="#91999E" fill-opacity="0.4"></path></svg>