<svg id="filelook_sketch_16" viewBox="0 0 40 40" fill="none" xmlns="http://www.w3.org/2000/svg"><rect x="-0.000854492" width="40" height="40" fill="#FFC107"></rect><path d="M10.7688 10.7692C10.7688 9.91957 11.4576 9.23077 12.3073 9.23077H23.8457L29.2303 14.6154V29.2308C29.2303 30.0804 28.5415 30.7692 27.6919 30.7692H12.3073C11.4576 30.7692 10.7688 30.0804 10.7688 29.2308V10.7692Z" fill="white"></path><path d="M23.9817 9.09479L23.9254 9.03847H23.8457H12.3073C11.3514 9.03847 10.5765 9.81336 10.5765 10.7692V29.2308C10.5765 30.1867 11.3514 30.9615 12.3073 30.9615H27.6919C28.6478 30.9615 29.4226 30.1866 29.4226 29.2308V14.6154V14.5357L29.3663 14.4794L23.9817 9.09479Z" stroke="currentColor" stroke-opacity="0.06" stroke-width="0.384615"></path><path opacity="0.8" d="M16.8347 18.8375L19.9999 15.3846L23.165 18.8375H16.8347Z" fill="#FFD249"></path><path opacity="0.8" d="M16.8347 18.8379L19.9999 24.8085L23.165 18.8379H16.8347Z" fill="#FFB333"></path><path d="M19.9999 15.3846L23.165 15.9601V18.8375L19.9999 15.3846Z" fill="#FFD249"></path><path d="M19.9999 15.3846L16.8347 15.9601V18.8375L19.9999 15.3846Z" fill="#FFD249"></path><path d="M23.165 15.9597L25.0354 18.8371H23.165V15.9597Z" fill="#FFD249"></path><path d="M20 24.8085L25.0355 18.8379H23.1651L20 24.8085Z" fill="#FFB333"></path><path d="M16.8347 15.9597L14.9644 18.8371H16.8347V15.9597Z" fill="#FFD249"></path><path d="M20 24.8085L14.9645 18.8379H16.8349L20 24.8085Z" fill="#FFB333"></path><path d="M23.8457 13.0769V9.23077L29.2303 14.6154H25.3842C24.5345 14.6154 23.8457 13.9266 23.8457 13.0769Z" fill="#FE9900" fill-opacity="0.4"></path></svg>