<svg id="finger_24" viewBox="0 0 24 24" fill="none" xmlns="http://www.w3.org/2000/svg"><path d="M3.29393 16.6045L7.78032 21.091C8.20228 21.513 8.77459 21.75 9.37133 21.75H17.8698C19.04 21.75 20.0148 20.853 20.112 19.6869L20.612 13.6869C20.7213 12.3751 19.6861 11.25 18.3698 11.25H14C13.5858 11.25 13.25 10.9142 13.25 10.5V4.5C13.25 3.25736 12.2426 2.25 11 2.25C9.75736 2.25 8.75 3.25736 8.75 4.5L8.75 15.2865L5.4377 13.6303C4.20288 13.0128 2.75 13.9108 2.75 15.2913C2.75 15.7839 2.94566 16.2562 3.29393 16.6045Z" stroke="currentColor" stroke-width="1.5"></path></svg>