<svg id="finger_16" viewBox="0 0 16 16" fill="none" xmlns="http://www.w3.org/2000/svg"><path d="M3.2918 9.08685L3.08134 9.50775L3.2918 9.08685C2.46859 8.67523 1.5 9.27384 1.5 10.1942C1.5 10.5226 1.63044 10.8375 1.86262 11.0697L2.21618 10.7161L1.86262 11.0697L4.85355 14.0607C5.13485 14.342 5.51639 14.5 5.91422 14.5H11.5799C12.36 14.5 13.0099 13.902 13.0747 13.1246L13.408 9.12458C13.4809 8.25005 12.7908 7.50001 11.9132 7.50001H9C8.72386 7.50001 8.5 7.27616 8.5 7.00001V3C8.5 2.17157 7.82843 1.5 7 1.5C6.17157 1.5 5.5 2.17158 5.5 3L5.5 10.191L3.2918 9.08685Z" stroke="currentColor"></path></svg>