<svg id="home_16" viewBox="0 0 16 16" fill="none" xmlns="http://www.w3.org/2000/svg"><path fill-rule="evenodd" clip-rule="evenodd" d="M7.81739 1.93298C7.63343 1.78186 7.36844 1.78141 7.18396 1.9319L3.18396 5.19491L1.18396 6.82642L0.68396 7.23429L1.31607 8.00917L1.81607 7.60129L2.00002 7.45124V13C2.00002 13.5523 2.44773 14 3.00001 14H12C12.5523 14 13 13.5523 13 13V7.48447L13.1826 7.63449L13.6826 8.04522L14.3174 7.27251L13.8174 6.86178L11.8174 5.21884L7.81739 1.93298ZM12 6.663L11.1826 5.99156L7.49891 2.9655L3.81607 5.96979L3.00002 6.63549L3.00001 13H7.00002V10H8.00002V13L12 13V6.663Z" fill="currentColor"></path></svg>