<svg id="like_outline_24" viewBox="0 0 24 24" fill="none" xmlns="http://www.w3.org/2000/svg"><path fill-rule="evenodd" clip-rule="evenodd" d="M6.50025 22H6.5H4C2.89543 22 2 21.1046 2 20V11C2 9.89544 2.89543 9.00001 4 9.00001H6.5H6.50321L6.7959 8.60577L11.1762 2.70548C12.1315 1.41857 14.0346 1.22451 15.2124 2.35742C16.0336 3.14729 16.2455 4.36501 15.7533 5.385L14.0088 9.00006H20.1962C21.8497 9.00006 23.0478 10.5766 22.6048 12.1698L20.3804 20.1698C20.0796 21.2515 19.0945 22.0001 17.9717 22.0001H8.00025H6.50025V22ZM11.6194 10.5001H13.2849H20.1962C20.8576 10.5001 21.3368 11.1307 21.1596 11.7679L18.9352 19.7679C18.8149 20.2006 18.4209 20.5001 17.9717 20.5001L9.50025 20.5001L8.00025 20.5001V19.0001L8.00028 9.49989L12.3806 3.59959C12.8089 3.02259 13.6606 2.94602 14.1726 3.43848C14.5229 3.77544 14.6147 4.29301 14.4024 4.73308L12.3433 9.00006L11.6194 10.5001ZM4 10.5H6.5V20.5H4C3.72386 20.5 3.5 20.2762 3.5 20V11C3.5 10.7239 3.72386 10.5 4 10.5Z" fill="currentColor"></path></svg>