<svg id="like_outline_16" viewBox="0 0 16 16" fill="none" xmlns="http://www.w3.org/2000/svg"><path fill-rule="evenodd" clip-rule="evenodd" d="M4.20794 5.7229L4.00007 5.99268V5.99996H4H2C1.44772 5.99996 1 6.44768 1 6.99996V13.6666C1 14.2189 1.44772 14.6666 2 14.6666H4L3.99999 14.6667H5H12.0492C12.7174 14.6667 13.3051 14.2246 13.4904 13.5826L15.1257 7.91589C15.4025 6.95681 14.6827 5.99999 13.6845 5.99999H9.12351L10.3182 3.61463C10.6648 2.92257 10.5226 2.08905 9.94816 1.55665C9.14515 0.812442 7.87606 0.962235 7.23099 1.79944L4.20794 5.7229ZM5 13.6667H6H12.0492C12.2719 13.6667 12.4678 13.5193 12.5296 13.3053L14.1649 7.63862C14.2571 7.31893 14.0172 6.99999 13.6845 6.99999H8.62266H7.50424L8.00509 5.99999L9.4241 3.16681C9.5744 2.86673 9.51211 2.51595 9.26841 2.2901C8.91463 1.96222 8.32426 2.01896 8.02312 2.40979L5.00007 6.33325L5 12.6667V13.6666V13.6667ZM4 13.6666V6.99996H2V13.6666H4Z" fill="currentColor"></path></svg>