<svg id="link_16" viewBox="0 0 16 16" fill="none" xmlns="http://www.w3.org/2000/svg"><path d="M12.773 5.80546L10.6517 7.92678L11.3588 8.63389L13.4801 6.51257L12.773 5.80546ZM8.17678 4.7448L9.94455 2.97703L9.23744 2.26993L7.46968 4.03769L8.17678 4.7448ZM10.6517 7.92678C9.87061 8.70783 8.60428 8.70783 7.82323 7.92678L7.11612 8.63389C8.2877 9.80546 10.1872 9.80546 11.3588 8.63389L10.6517 7.92678ZM12.773 2.97703C13.554 3.75808 13.554 5.02441 12.773 5.80546L13.4801 6.51257C14.6517 5.34099 14.6517 3.4415 13.4801 2.26993L12.773 2.97703ZM13.4801 2.26993C12.3085 1.09835 10.409 1.09835 9.23744 2.26993L9.94455 2.97703C10.7256 2.19598 11.9919 2.19598 12.773 2.97703L13.4801 2.26993Z" fill="currentColor"></path><path d="M3.22702 9.69454L5.34834 7.57322L4.64124 6.86611L2.51992 8.98743L3.22702 9.69454ZM7.82322 10.7552L6.05545 12.523L6.76256 13.2301L8.53032 11.4623L7.82322 10.7552ZM5.34834 7.57322C6.12939 6.79217 7.39572 6.79217 8.17677 7.57322L8.88388 6.86611C7.7123 5.69454 5.81281 5.69454 4.64124 6.86611L5.34834 7.57322ZM3.22702 12.523C2.44597 11.7419 2.44597 10.4756 3.22702 9.69454L2.51992 8.98743C1.34834 10.159 1.34834 12.0585 2.51992 13.2301L3.22702 12.523ZM2.51992 13.2301C3.69149 14.4016 5.59098 14.4016 6.76256 13.2301L6.05545 12.523C5.2744 13.304 4.00807 13.304 3.22702 12.523L2.51992 13.2301Z" fill="currentColor"></path></svg>