<svg id="lock_24" viewBox="0 0 24 24" fill="none" xmlns="http://www.w3.org/2000/svg"><path fill-rule="evenodd" clip-rule="evenodd" d="M6.25 7.5C6.25 4.32436 8.82436 1.75 12 1.75C15.1756 1.75 17.75 4.32436 17.75 7.5V9H19.5C20.3284 9 21 9.67157 21 10.5V20.5C21 21.3284 20.3284 22 19.5 22H4.5C3.67157 22 3 21.3284 3 20.5V10.5C3 9.67157 3.67157 9 4.5 9H6.25V7.5ZM16.25 7.5V9H7.75V7.5C7.75 5.15279 9.65279 3.25 12 3.25C14.3472 3.25 16.25 5.15279 16.25 7.5ZM4.5 10.5L4.5 20.5H19.5V10.5H4.5ZM13 17V14H11V17H13Z" fill="currentColor"></path></svg>