<svg id="long_screenshot_16" viewBox="0 0 16 16" fill="none" xmlns="http://www.w3.org/2000/svg"><path fill-rule="evenodd" clip-rule="evenodd" d="M3 3H13V7.66667H14V3C14 2.44772 13.5523 2 13 2H3C2.44772 2 2 2.44772 2 3V7.66667H3L3 3ZM4.66667 13C5.40305 13 6 12.403 6 11.6667C6 10.9303 5.40305 10.3333 4.66667 10.3333C3.93029 10.3333 3.33333 10.9303 3.33333 11.6667C3.33333 12.403 3.93029 13 4.66667 13ZM4.66667 14C5.95533 14 7 12.9553 7 11.6667C7 11.2108 6.86927 10.7855 6.64326 10.4261L8.01451 9.05488L9.36801 10.4084C9.13508 10.7714 9 11.2033 9 11.6667C9 12.9553 10.0447 14 11.3333 14C12.622 14 13.6667 12.9553 13.6667 11.6667C13.6667 10.378 12.622 9.33333 11.3333 9.33333C10.87 9.33333 10.4381 9.46841 10.0751 9.70133L8.72156 8.34783L11.3236 5.74582C11.7136 5.35577 11.7136 4.72338 11.3236 4.33333L8.01532 7.64158L4.70705 4.33331C4.31656 4.72381 4.31656 5.35692 4.70705 5.74742L7.30827 8.34863L5.94352 9.71338C5.57665 9.47307 5.13798 9.33333 4.66667 9.33333C3.378 9.33333 2.33333 10.378 2.33333 11.6667C2.33333 12.9553 3.378 14 4.66667 14ZM12.6667 11.6667C12.6667 12.403 12.0697 13 11.3333 13C10.597 13 10 12.403 10 11.6667C10 10.9303 10.597 10.3333 11.3333 10.3333C12.0697 10.3333 12.6667 10.9303 12.6667 11.6667Z" fill="currentColor"></path></svg>