<svg id="microphone_on_24" viewBox="0 0 24 24" fill="none" xmlns="http://www.w3.org/2000/svg"><path fill-rule="evenodd" clip-rule="evenodd" d="M15.5 12V7C15.5 5.067 13.933 3.5 12 3.5C10.067 3.5 8.49997 5.067 8.49997 7V12C8.49997 13.933 10.067 15.5 12 15.5C13.933 15.5 15.5 13.933 15.5 12ZM12 2C9.23855 2 6.99997 4.23858 6.99997 7V12C6.99997 14.7614 9.23855 17 12 17C14.7614 17 17 14.7614 17 12V7C17 4.23858 14.7614 2 12 2ZM16.5347 17.8712C17.8471 16.8083 18.8036 15.3064 19.2394 13.5897L20.6933 13.9588C20.1805 15.9788 19.0506 17.7638 17.4788 19.0369C16.1062 20.1486 14.4636 20.8157 12.75 20.967V23H11.25V20.967C9.53631 20.8157 7.89372 20.1486 6.52112 19.0369C4.94934 17.7638 3.81942 15.9788 3.30664 13.9588L4.76053 13.5897C5.1963 15.3064 6.15286 16.8083 7.46522 17.8712C8.77599 18.9329 10.3702 19.5 12 19.5C13.6297 19.5 15.224 18.9329 16.5347 17.8712Z" fill="currentColor"></path></svg>