<svg id="open_file_16" viewBox="0 0 16 16" fill="none" xmlns="http://www.w3.org/2000/svg"><path fill-rule="evenodd" clip-rule="evenodd" d="M7.46483 5H8.00002L12 5V6.66675H4.70043C4.27992 6.66675 3.90434 6.92982 3.76063 7.32501L2.01093 12.1367V3H6.13152L7.16797 4.55469L7.46483 5ZM3 13.0001V13H2.76106L4.70043 7.66675H14.5723L12.6329 13.0001L3 13.0001ZM2.74794 14H2.01093C1.45864 14 1.01093 13.5523 1.01093 13V3C1.01093 2.44772 1.45864 2 2.01093 2H6.13152C6.46588 2 6.77811 2.1671 6.96358 2.44531L8.00002 4H12C12.5523 4 13 4.44772 13 5V6.66675H14.5723C15.2663 6.66675 15.7493 7.35631 15.5121 8.00849L13.5727 13.3418C13.429 13.737 13.0534 14.0001 12.6329 14.0001H2.76103C2.75666 14.0001 2.75229 14.0001 2.74794 14Z" fill="currentColor"></path></svg>