<svg id="pause_16" viewBox="0 0 16 16" fill="none" xmlns="http://www.w3.org/2000/svg"><path fill-rule="evenodd" clip-rule="evenodd" d="M11.5 2C11.7761 2 12 2.22386 12 2.5V13.5C12 13.7761 11.7761 14 11.5 14H10.5C10.2239 14 10 13.7761 10 13.5V2.5C10 2.22386 10.2239 2 10.5 2H11.5Z" fill="currentColor"></path><path fill-rule="evenodd" clip-rule="evenodd" d="M5.5 2C5.77614 2 6 2.22386 6 2.5L6 13.5C6 13.7761 5.77614 14 5.5 14H4.5C4.22386 14 4 13.7761 4 13.5L4 2.5C4 2.22386 4.22386 2 4.5 2H5.5Z" fill="currentColor"></path></svg>