<svg id="star_16" viewBox="0 0 16 16" fill="none" xmlns="http://www.w3.org/2000/svg"><path d="M9.76326 5.45281L9.8802 5.67654L10.1297 5.71528L13.6071 6.25526C13.7428 6.27632 13.7962 6.44316 13.698 6.53913L11.2205 8.96123L11.035 9.1425L11.0764 9.3985L11.6258 12.7994C11.6474 12.9333 11.5086 13.0356 11.3871 12.9753L8.22242 11.4034L8 11.2929L7.77758 11.4034L4.61287 12.9753C4.49139 13.0356 4.35256 12.9333 4.37419 12.7994L4.9236 9.3985L4.96496 9.1425L4.77953 8.96123L2.30196 6.53913C2.2038 6.44317 2.25724 6.27632 2.39289 6.25526L5.87034 5.71528L6.1198 5.67654L6.23674 5.45281L7.85229 2.36197C7.91464 2.24269 8.08536 2.24269 8.14771 2.36197L9.76326 5.45281Z" stroke="currentColor"></path></svg>