<svg id="voice_high_24" viewBox="0 0 24 24" fill="none" xmlns="http://www.w3.org/2000/svg"><path d="M7 8.75H7.25L7.45 8.6L13.85 3.8C14.0148 3.67639 14.25 3.79399 14.25 4L14.25 20C14.25 20.206 14.0148 20.3236 13.85 20.2L7.45 15.4L7.25 15.25H7H3.5C3.08579 15.25 2.75 14.9142 2.75 14.5L2.75 9.5C2.75 9.08579 3.08579 8.75 3.5 8.75H7Z" stroke="currentColor" stroke-width="1.5"></path><path d="M17.0052 8.9948C17.3999 9.38945 17.7129 9.85796 17.9265 10.3736C18.1401 10.8892 18.25 11.4419 18.25 12C18.25 12.5581 18.1401 13.1108 17.9265 13.6264C17.7129 14.142 17.3999 14.6106 17.0052 15.0052" stroke="currentColor" stroke-width="1.5"></path><path d="M19.1265 6.87348C20.4862 8.23312 21.25 10.0772 21.25 12C21.25 13.9228 20.4862 15.7669 19.1265 17.1265" stroke="currentColor" stroke-width="1.5"></path></svg>