<svg id="voice_high_16" viewBox="0 0 16 16" fill="none" xmlns="http://www.w3.org/2000/svg"><path d="M5 5.5H5.17539L5.31235 5.39043L9.5 2.04031L9.5 13.9597L5.31235 10.6096L5.17539 10.5H5H2C1.72386 10.5 1.5 10.2761 1.5 10L1.5 6C1.5 5.72386 1.72386 5.5 2 5.5L5 5.5Z" stroke="currentColor"></path><path d="M10.7678 6.23223C10.9999 6.46438 11.1841 6.73998 11.3097 7.04329C11.4353 7.34661 11.5 7.6717 11.5 8C11.5 8.3283 11.4353 8.65339 11.3097 8.95671C11.1841 9.26002 10.9999 9.53562 10.7678 9.76777" stroke="currentColor"></path><path d="M12.182 4.81802C13.0259 5.66193 13.5 6.80653 13.5 8C13.5 9.19347 13.0259 10.3381 12.182 11.182" stroke="currentColor"></path></svg>