<svg id="collection_24" viewBox="0 0 24 24" fill="none" xmlns="http://www.w3.org/2000/svg"><path fill-rule="evenodd" clip-rule="evenodd" d="M12 16.8229L18.1758 19.9109C18.7872 20.2165 19.1525 20.3975 19.4238 20.503C19.4391 20.5089 19.4535 20.5144 19.4668 20.5193C19.4684 20.5051 19.47 20.4899 19.4715 20.4735C19.4985 20.1836 19.5 19.776 19.5 19.0924V5.415C19.5 4.96271 19.4988 4.71521 19.484 4.53749C19.4835 4.53053 19.4829 4.52394 19.4823 4.51771C19.4761 4.51713 19.4695 4.51654 19.4625 4.51596C19.2848 4.50121 19.0373 4.5 18.585 4.5H5.415C4.9627 4.5 4.71521 4.50121 4.53749 4.51596C4.53053 4.51654 4.52394 4.51713 4.51771 4.51771C4.51713 4.52394 4.51654 4.53053 4.51596 4.53749C4.50121 4.71521 4.5 4.9627 4.5 5.415V19.0924C4.5 19.776 4.50154 20.1836 4.52851 20.4735C4.53003 20.4899 4.53158 20.5051 4.53315 20.5193C4.54654 20.5144 4.56088 20.5089 4.5762 20.503C4.84755 20.3974 5.21279 20.2166 5.8242 19.9108L12 16.8229ZM17.505 21.2525L12 18.5L6.49502 21.2525C5.32546 21.8373 4.74068 22.1297 4.26568 22.0545C3.86861 21.9917 3.51337 21.7722 3.27962 21.4451C3 21.0539 3 20.4001 3 19.0924V5.415C3 4.56076 3 4.13365 3.16888 3.80854C3.31119 3.53457 3.53457 3.31119 3.80854 3.16888C4.13365 3 4.56076 3 5.415 3H18.585C19.4392 3 19.8664 3 20.1915 3.16888C20.4654 3.31119 20.6888 3.53457 20.8311 3.80854C21 4.13365 21 4.56076 21 5.415V19.0924C21 20.4001 21 21.0539 20.7204 21.4451C20.4866 21.7722 20.1314 21.9917 19.7343 22.0545C19.2593 22.1297 18.6745 21.8373 17.505 21.2525Z" fill="currentColor"></path><path d="M11.7741 7.4762C11.8645 7.28572 12.1355 7.28572 12.2259 7.4762L13.1965 9.52251L15.4631 9.7992C15.6746 9.82503 15.7589 10.0868 15.6021 10.2312L13.936 11.766L14.3697 13.9776C14.4104 14.1854 14.1906 14.3466 14.0047 14.2452L12 13.1525L9.99528 14.2452C9.80938 14.3466 9.58956 14.1854 9.6303 13.9776L10.064 11.766L8.39786 10.2312C8.24108 10.0868 8.32536 9.82503 8.53695 9.7992L10.8035 9.52251L11.7741 7.4762Z" fill="currentColor"></path></svg>